<?xml version="1.0" encoding="UTF-8"?>
<svg width="54px" height="58px" viewBox="0 0 54 58" version="1.1" xmlns="http://www.w3.org/2000/svg" xmlns:xlink="http://www.w3.org/1999/xlink">
    <title>重要生态安全区备份</title>
    <g id="Web" stroke="none" stroke-width="1" fill="none" fill-rule="evenodd">
        <g id="领域" transform="translate(-308.000000, -3301.000000)" fill="#2EA7E0" fill-rule="nonzero">
            <g id="重要生态安全区备份" transform="translate(308.000000, 3301.000000)">
                <path d="M42.2033415,11.9733299 C39.7807411,18.3526938 27.0208845,27.7213614 27.0208845,27.7213614 C32.1087969,27.9635086 36.1468405,28.6905145 42.0419101,22.5532977 C47.9375441,16.4155166 48.9874129,0.102475078 47.7755482,0.748765312 C46.564248,1.39449102 35.9848446,3.97908734 29.2013377,9.22843109 C22.4178309,14.4772105 24.4374171,26.5913414 24.4374171,26.5913414 C36.4685745,21.2607174 42.2033416,11.9733299 42.2033415,11.9733299 Z M21.2578952,23.4643129 C21.2578952,23.4643129 12.4147263,16.7987751 10.7360652,12.2600683 C10.7360652,12.2600683 14.7097621,18.8680326 23.0494455,22.6605424 C23.0494455,22.6605424 24.4481416,14.0408941 19.7468744,10.3065222 C15.0461716,6.57215031 7.71458812,4.73318656 6.8752575,4.27372789 C6.03592695,3.81426922 6.76236836,15.4203991 10.8478255,19.7875145 C14.9332825,24.1551943 17.7323681,23.6375977 21.2578952,23.4643129 L21.2578952,23.4643129 Z" id="形状"></path>
                <path d="M48.6673722,17.1047047 C48.5702876,17.4958655 48.5121497,17.7351904 48.5121497,17.7351904 L47.0299156,20.9451923 C48.6745576,23.7701479 49.6853074,26.9189185 49.992126,30.173313 L21.0027658,30.173313 C21.1179127,28.0363221 21.295713,26.7002795 21.295713,26.7002794 L17.5799678,26.0545537 C17.4760041,27.4255527 17.4054275,28.7988792 17.3683007,30.173313 L4.86357352,30.173313 L4.92340477,30.0017216 C5.26195282,26.703976 6.32368148,23.5214881 8.03293539,20.6810318 L5.67185953,17.7092259 C2.64530234,21.8550786 0.862783281,26.9029154 0.862783281,32.3532018 C0.862783281,46.4474077 12.7409759,57.8729151 27.3917252,57.8729151 C42.0436034,57.8729151 53.9206683,46.4474078 53.9206683,32.3532018 C53.9223605,26.6359326 51.9688144,21.3589309 48.6673722,17.1047047 L48.6673722,17.1047047 Z M33.3291282,33.725369 C33.3291282,33.725369 33.6469111,38.9860017 33.004572,42.4556487 C28.7034968,41.5181046 24.817289,41.601078 21.5113312,42.1542348 C21.0513081,39.159851 20.9073745,36.2230407 20.9084968,33.725369 L33.3291282,33.725369 L33.3291282,33.725369 Z M28.0690599,55.0128694 C27.8652951,55.0185138 27.6615302,55.0269805 27.456072,55.0269805 C27.1577319,55.0256889 26.8594513,55.0181613 26.5614258,55.0044027 C24.4983772,52.5095532 23.1600767,49.3480936 22.3060706,46.051167 C25.4263258,45.7045973 27.8122372,45.8496599 27.8122372,45.8496599 C29.1946911,45.924587 30.5729994,46.0626438 31.9428499,46.2633985 C31.0521548,49.1059464 29.6393475,52.9977987 28.0690599,55.0128694 Z M35.3978212,46.9339598 C39.0074507,47.8161883 41.218384,48.974995 42.1909237,49.5693563 C39.3266185,52.0330327 35.8896514,53.7382218 32.195157,54.5285751 C32.812096,53.6175599 34.2147433,51.2355996 35.3978212,46.9339598 Z M21.8838653,54.3349702 C18.3316328,53.4324853 15.0522109,51.6795472 12.3283662,49.2273023 C14.2892502,47.9093219 16.6593571,47.0970847 18.9504416,46.595857 C20.0025682,50.7829142 21.2844241,53.3042926 21.8838653,54.3349702 L21.8838653,54.3349702 Z M4.84946234,33.725369 L17.3547541,33.725369 C17.423052,37.2480738 17.7351904,40.3034177 18.1771512,42.9055118 C13.0186831,44.3787148 9.94640594,46.7273728 9.94076141,46.7307595 C6.91140619,43.0429018 5.12894999,38.489734 4.84946234,33.725369 L4.84946234,33.725369 Z M44.5316795,47.243276 C41.6563937,45.4601924 38.8764993,44.1969633 36.2258629,43.3305393 C36.7338639,40.6640984 37.1193802,37.4794965 37.2554116,33.7248045 L50.0638105,33.7248045 C49.767493,38.7192101 47.82171,43.4739803 44.5316795,47.243276 L44.5316795,47.243276 Z" id="形状"></path>
            </g>
        </g>
    </g>
</svg>