<?xml version="1.0" encoding="UTF-8"?>
<svg width="65px" height="65px" viewBox="0 0 65 65" version="1.1" xmlns="http://www.w3.org/2000/svg" xmlns:xlink="http://www.w3.org/1999/xlink">
    <title>动态成本</title>
    <g id="Web" stroke="none" stroke-width="1" fill="none" fill-rule="evenodd">
        <g id="领域" transform="translate(-454.000000, -2968.000000)" fill-rule="nonzero">
            <g id="动态成本" transform="translate(454.000000, 2968.000000)">
                <rect id="矩形" fill="#000000" opacity="0" x="0" y="0" width="65" height="65"></rect>
                <path d="M12.35,21.3803571 C7.56788233,29.6617061 8.07005648,39.9743832 13.6341592,47.7519246 C19.1982619,55.529466 28.7962851,59.3349148 38.1782143,57.4832143 L39.4039286,57.2046429 L40.5367857,61.7082143 C29.4204471,64.5043423 17.6998435,60.4945779 10.6257146,51.4752643 C3.55158573,42.4559507 2.44979204,30.1175225 7.8139286,19.9875 L8.32464287,19.0589286 L12.35,21.3803571 Z M46.8975,7.7814286 C60.4183819,15.586825 65.3401587,32.690974 58.0357143,46.4889286 L57.5203571,47.4175 L53.4996429,45.0960714 C58.3218558,36.741963 57.7639748,26.3300004 52.0766943,18.5389987 C46.3894138,10.7479971 36.6427011,7.04370388 27.2164286,9.09071427 L26.0464286,9.3739286 L24.8392857,4.8935714 C32.282997,2.87711213 40.2237508,3.9167141 46.8975,7.7814286 L46.8975,7.7814286 Z" id="形状" fill="#2EA7E0"></path>
                <path d="M52.7707143,50.05 L49.7667857,38.8421429 L54.2517857,37.6396429 L56.0578571,44.3717857 L62.7807143,42.5657143 L63.9832143,47.0507143 L52.7707143,50.05 Z M13.4178571,14.9360714 L2.20071427,17.94 L3.40785713,22.425 L10.1353571,20.6235714 L11.9321429,27.3510714 L16.4171429,26.1485714 L13.4178571,14.9360714 Z" id="形状" fill="#2EA7E0"></path>
                <path d="M23.8875,18.1767857 L24.2125,18.4460714 L32.2121429,26.4503571 L40.2210714,18.4460714 C41.0137355,17.6524851 42.260439,17.5391484 43.1832143,18.1767857 L43.5082143,18.4460714 C44.3003299,19.2399161 44.411704,20.486525 43.7728571,21.4082143 L43.5035714,21.7332143 L38.2710714,26.9610714 L43.5407143,26.9610714 C44.8228039,26.9610714 45.8621429,28.0004104 45.8621429,29.2825 C45.8621429,30.5645896 44.8228039,31.6039286 43.5407143,31.6039286 L34.5335714,31.6039286 L34.5335714,37.5746429 L43.5407143,37.5746429 C44.3701722,37.5745057 45.1366817,38.0169375 45.5514503,38.7352463 C45.9662189,39.4535551 45.9662189,40.3385877 45.5514503,41.0568965 C45.1366817,41.7752054 44.3701722,42.2176372 43.5407143,42.2175 L34.5335714,42.2175 L34.5335714,48.1882143 C34.5337086,49.0176722 34.0912768,49.7841817 33.3729679,50.1989503 C32.6546591,50.6137189 31.7696266,50.6137189 31.0513177,50.1989503 C30.3330089,49.7841817 29.8905771,49.0176722 29.8907143,48.1882143 L29.8907143,42.2175 L20.8928571,42.2175 C19.6109174,42.217288 18.5718124,41.1780111 18.5718124,39.8960714 C18.5718124,38.6141317 19.6109174,37.5748548 20.8928571,37.5746429 L29.8907143,37.5746429 L29.8907143,31.6039286 L20.8928571,31.6039286 C19.6107675,31.6039286 18.5714285,30.5645896 18.5714285,29.2825 C18.5714285,28.0004104 19.6107675,26.9610714 20.8928571,26.9610714 L26.1578571,26.9610714 L20.9253571,21.7285714 C20.0728211,20.8798365 20.0098983,19.5204404 20.7803857,18.5965801 C21.5508732,17.6727198 22.8994717,17.4905141 23.8875,18.1767857 Z" id="路径" fill="#2EA7E0"></path>
            </g>
        </g>
    </g>
</svg>