<?xml version="1.0" encoding="UTF-8"?>
<svg width="70px" height="70px" viewBox="0 0 70 70" version="1.1" xmlns="http://www.w3.org/2000/svg" xmlns:xlink="http://www.w3.org/1999/xlink">
    <title>定制化</title>
    <g id="Web" stroke="none" stroke-width="1" fill="none" fill-rule="evenodd">
        <g id="领域" transform="translate(-695.000000, -2965.000000)" fill-rule="nonzero">
            <g id="定制化" transform="translate(695.000000, 2965.000000)">
                <rect id="矩形" fill="#000000" opacity="0" x="0" y="0" width="70" height="70"></rect>
                <path d="M61.9643555,51.4076172 L20.5618164,7.38212891 C19.7599609,6.5296875 18.41875,6.48867187 17.5669922,7.29052734 L8.55039063,15.7691406 C8.14023438,16.1540039 7.90097656,16.6858398 7.88388672,17.2477539 C7.86679688,17.8089844 8.07324219,18.3551758 8.45810547,18.7646484 L49.8613281,62.7908203 C50.2464058,63.200146 50.7782229,63.4398694 51.3399414,63.4573242 C51.3618164,63.4580078 51.3836914,63.4580078 51.4048828,63.4580078 C51.9435547,63.4580078 52.4630859,63.2529297 52.8561523,62.8824219 L61.8720703,54.403125 C62.7251953,53.6012695 62.7662109,52.2607422 61.9643555,51.4076172 Z M51.497168,58.3433594 L12.997168,17.4042969 L18.9259766,11.8289062 L20.8338867,13.8578125 L18.8179688,15.8737305 C17.8807617,16.8109375 17.8807617,18.3319336 18.8179688,19.2691406 C19.2869141,19.7380859 19.9014648,19.9725586 20.5160156,19.9725586 C21.1305664,19.9725586 21.7451172,19.7380859 22.2140625,19.2698242 L24.1260742,17.3584961 L27.2008789,20.628125 L24.8431641,22.9858398 C23.905957,23.9230469 23.905957,25.444043 24.8431641,26.38125 C25.3121094,26.8501953 25.9266602,27.0839844 26.5412109,27.0839844 C27.1557617,27.0839844 27.7703125,26.8495117 28.2392578,26.3805664 L30.4923828,24.1274414 L34.4558594,28.3424805 L32.8712891,29.9270508 C31.934082,30.8642578 31.934082,32.3852539 32.8712891,33.3224609 C33.3402344,33.7914063 33.9547852,34.0251953 34.5693359,34.0251953 C35.1838867,34.0251953 35.7984375,33.7907227 36.2673828,33.3217773 L37.7473633,31.8417969 L41.6575195,36.0000977 L40.0640625,37.5935547 C39.1268555,38.5307617 39.1268555,40.0517578 40.0640625,40.9889648 C40.5330078,41.4579102 41.1475586,41.6916992 41.7621094,41.6916992 C42.3766602,41.6916992 42.9912109,41.4572266 43.4601562,40.9882812 L44.9490234,39.4994141 L49.4771484,44.3139648 L47.8249023,45.9662109 C46.8876953,46.903418 46.8876953,48.4244141 47.8249023,49.3616211 C48.2938477,49.8305664 48.9083984,50.0650391 49.5229492,50.0650391 C50.1375,50.0650391 50.7520508,49.8305664 51.2209961,49.3623047 L52.7686523,47.8146484 L57.4273437,52.7686523 L51.497168,58.3433594 L51.497168,58.3433594 Z M28.1948242,44.8416992 L17.6538086,55.4333008 C16.4000977,55.6828125 14.6384766,56.0150391 13.0805664,56.3041992 C13.3669922,54.9240234 13.7019531,53.3080078 14.0129883,51.7863281 L24.7119141,41.0361328 C25.6477539,40.0961914 25.6443359,38.5758789 24.7043945,37.6407227 C23.7651367,36.7055664 22.2448242,36.7083008 21.3089844,37.6489258 L10.1014648,48.909082 C9.76971704,49.2417712 9.54315891,49.6646955 9.45,50.1251953 C8.66796875,53.9758789 7.64941406,58.8157227 7.64873047,58.8177734 C7.48370086,59.6000879 7.71927841,60.4132021 8.27695313,60.9861328 C8.7287915,61.4513132 9.34974339,61.7134767 9.99824219,61.7134767 C10.1404297,61.7134767 10.2839844,61.7004883 10.4268555,61.6751953 C10.6873047,61.6280273 16.8164062,60.5151367 19.3313477,59.9935547 C19.7914062,59.8978516 20.2138672,59.6695312 20.5460937,59.3366211 L31.5998047,48.2302734 C32.5349609,47.290332 32.531543,45.7700195 31.5916016,44.8348633 C30.6516602,43.899707 29.1306641,43.9017578 28.1948242,44.8416992 Z M40.8761719,24.2163086 L45.8411133,19.4530273 L49.5776367,23.1895508 L44.7275391,28.0628906 C43.7916992,29.002832 43.7951172,30.5231445 44.7350586,31.4583008 C45.2033203,31.9245117 45.8158203,32.1576172 46.4290039,32.1576172 C47.0449219,32.1576172 47.6615234,31.9217773 48.1304687,31.4507813 L56.9611328,22.5791016 C58.3508789,21.1893555 59.1158203,19.3361328 59.1158203,17.3612305 C59.1158203,15.3863281 58.3508789,13.5331055 56.9611328,12.1433594 C55.5713867,10.7536133 53.7181641,9.98867187 51.7432617,9.98867187 C49.7683594,9.98867187 47.9151367,10.7542969 46.5616211,12.1091797 L37.5518555,20.7518555 C36.5948242,21.6699219 36.5626953,23.1895508 37.4814453,24.146582 C38.3988281,25.1022461 39.9191406,25.1350586 40.8761719,24.2163086 L40.8761719,24.2163086 Z M51.7432617,14.7902344 C52.4357422,14.7902344 53.0824219,15.0561523 53.5650391,15.5387695 C54.0476562,16.0213867 54.3142578,16.6680664 54.3142578,17.3605469 C54.3142578,18.0530273 54.0483398,18.699707 53.5616211,19.1864258 L52.5669922,20.1858398 L49.6548828,17.2737305 C49.6487305,17.234082 49.6514648,17.1951172 49.6425781,17.1554688 C49.6179687,17.0208008 49.5755859,16.8854492 49.5263672,16.7630859 C49.4709961,16.6345703 49.4040039,16.5115234 49.3301758,16.3953125 C49.2905273,16.337207 49.2419922,16.2866211 49.1982422,16.2326172 L49.9214844,15.5387695 C50.4047852,15.0554688 51.0514648,14.7902344 51.7432617,14.7902344 L51.7432617,14.7902344 Z" id="形状" fill="#2EA7E0"></path>
            </g>
        </g>
    </g>
</svg>