<?xml version="1.0" encoding="UTF-8"?>
<svg width="65px" height="65px" viewBox="0 0 65 65" version="1.1" xmlns="http://www.w3.org/2000/svg" xmlns:xlink="http://www.w3.org/1999/xlink">
    <title>智能算法</title>
    <g id="Web" stroke="none" stroke-width="1" fill="none" fill-rule="evenodd">
        <g id="领域" transform="translate(-925.000000, -2968.000000)" fill-rule="nonzero">
            <g id="智能算法" transform="translate(925.000000, 2968.000000)">
                <rect id="矩形" fill="#000000" opacity="0" x="0" y="0" width="65" height="65"></rect>
                <path d="M32.5063463,3.04622056 C33.9596474,3.04622056 35.425641,3.66308021 36.8643455,4.87966451 C38.4598035,6.22888633 39.9841831,8.30666262 41.2724806,10.8800844 C42.6489915,13.6324715 43.7342075,16.8614653 44.4989358,20.4769483 C45.3023765,24.2764738 45.7098084,28.3196969 45.7098084,32.4955576 C45.7098084,36.6714183 45.3023765,40.7146414 44.4989358,44.5141669 C43.7329382,48.1290153 42.6483568,51.3554705 41.2718459,54.1103962 C39.9835485,56.6863564 38.459169,58.7615942 36.8643455,60.1133545 C35.4262756,61.3299388 33.9602819,61.9467985 32.5063463,61.9467985 C31.0524107,61.9467985 29.5870517,61.3299389 28.1483471,60.1133545 C26.552889,58.7641327 25.0291441,56.6863564 23.7402121,54.1129348 C22.3637012,51.3605476 21.2784851,48.1315538 20.5137568,44.5160708 C19.7103161,40.7140068 19.299711,36.6707837 19.299711,32.494923 C19.299711,28.3190623 19.707143,24.2758391 20.5105837,20.4763137 C21.275312,16.8589268 22.3611627,13.6318369 23.7370389,10.8794497 C25.0253364,8.30285485 26.5497159,6.22825176 28.1451739,4.87902987 C29.586417,3.66308021 31.0530452,3.04622056 32.5063463,3.04622056 M32.5063463,0 C23.5320537,0 16.2598368,14.5488762 16.2598368,32.4930191 C16.2598368,50.437162 23.5352269,64.9860381 32.5063463,64.9860381 C41.4774658,64.9860381 48.7528558,50.4371619 48.7528558,32.4930191 C48.7528558,14.5488763 41.4774657,0 32.5063463,0 Z" id="形状" fill="#2EA7E0"></path>
                <path d="M32.5063463,3.04622056 C33.9596474,3.04622056 35.425641,3.66308021 36.8643455,4.87966451 C38.4598035,6.22888633 39.9841831,8.30666262 41.2724806,10.8800844 C42.6489915,13.6324715 43.7342075,16.8614653 44.4989358,20.4769483 C45.3023765,24.2764738 45.7098084,28.3196969 45.7098084,32.4955576 C45.7098084,36.6714183 45.3023765,40.7146414 44.4989358,44.5141669 C43.7329382,48.1290153 42.6483568,51.3554705 41.2718459,54.1103962 C39.9835485,56.6863564 38.459169,58.7615942 36.8643455,60.1133545 C35.4262756,61.3299388 33.9602819,61.9467985 32.5063463,61.9467985 C31.0524107,61.9467985 29.5870517,61.3299389 28.1483471,60.1133545 C26.552889,58.7641327 25.0291441,56.6863564 23.7402121,54.1129348 C22.3637012,51.3605476 21.2784851,48.1315538 20.5137568,44.5160708 C19.7103161,40.7140068 19.299711,36.6707837 19.299711,32.494923 C19.299711,28.3190623 19.707143,24.2758391 20.5105837,20.4763137 C21.275312,16.8589268 22.3611627,13.6318369 23.7370389,10.8794497 C25.0253364,8.30285485 26.5497159,6.22825176 28.1451739,4.87902987 C29.586417,3.66308021 31.0530452,3.04622056 32.5063463,3.04622056 M32.5063463,0 C23.5320537,0 16.2598368,14.5488762 16.2598368,32.4930191 C16.2598368,50.437162 23.5352269,64.9860381 32.5063463,64.9860381 C41.4774658,64.9860381 48.7528558,50.4371619 48.7528558,32.4930191 C48.7528558,14.5488763 41.4774657,0 32.5063463,0 Z" id="形状" fill="#2EA7E0"></path>
                <path d="M16.5435161,14.0462498 C23.1626995,14.0462498 31.3868603,16.6031712 39.10776,21.0608072 C42.725147,23.1487375 46.022046,25.5228857 48.9102439,28.1185195 C51.659458,30.5891313 53.9130266,33.1416102 55.6087559,35.7112241 C57.1953291,38.1151998 58.2304095,40.4709437 58.6016676,42.5290465 C58.9361172,44.3827987 58.7368436,45.9611217 58.0101931,47.2195915 C57.356525,48.3517701 56.2617895,49.2459628 54.7558142,49.8780535 C53.0696042,50.5856652 50.9550194,50.9442307 48.4729843,50.9442307 C41.8531664,50.9442307 33.6283709,48.3873093 25.907471,43.9296733 C22.2900841,41.841743 18.993185,39.4675948 16.1049872,36.8719611 C13.3557732,34.401984 11.1028392,31.8469665 9.40710983,29.2792564 C7.82053664,26.8752807 6.78545626,24.5195368 6.4141981,22.4614341 C6.07974847,20.6076819 6.27902209,19.0293589 7.00567258,17.770889 C7.65934076,16.6387104 8.75407622,15.7445177 10.2600516,15.112427 C11.9462616,14.4048154 14.061481,14.0462498 16.5460546,14.0462498 M16.5460546,11.0000293 C10.846449,11.0000293 6.40087094,12.726221 4.3681533,16.2477788 C-0.119944932,24.0194489 8.8391166,37.5948038 24.3811876,46.5678272 C32.8820468,51.4754155 41.5891606,53.9929898 48.4698112,53.9929898 C54.1694167,53.9929898 58.6149948,52.2667981 60.6477124,48.7452403 C65.1351761,40.9710316 56.1716721,27.3956767 40.6308703,18.4226533 C32.1300111,13.5150651 23.4228974,10.9974908 16.5422468,10.9974908 L16.5460546,11.0000293 Z" id="形状" fill="#2EA7E0"></path>
                <path d="M48.4717151,14.0462498 C50.9562887,14.0462498 53.0702388,14.4048154 54.7545449,15.112427 C56.2598856,15.7470563 57.356525,16.6355373 58.0082892,17.770889 C58.7349398,19.0293589 58.9342133,20.6076819 58.5997637,22.4614341 C58.2291402,24.517633 57.1940599,26.8752807 55.606852,29.2792564 C53.9117572,31.8476011 51.6581887,34.401984 48.9089746,36.8719611 C46.022046,39.4675949 42.7238777,41.841743 39.10776,43.930308 C31.3868602,48.3873094 23.1620648,50.9442307 16.5428814,50.9442307 C14.0576731,50.9442307 11.9430884,50.5856652 10.2600516,49.8780535 C8.75471092,49.2434243 7.65807155,48.3549433 7.00567258,47.2195915 C6.27902203,45.9611216 6.07974847,44.3827986 6.4141981,42.5290465 C6.78482162,40.4728476 7.81990193,38.1151999 9.40710983,35.7112241 C11.0996661,33.1416102 13.3532347,30.5891312 16.1018141,28.1185195 C18.9906465,25.5228857 22.2881803,23.148103 25.9042979,21.0608072 C33.6251977,16.6031712 41.8499932,14.0468844 48.4704458,14.0462498 M48.4704458,11.0000293 C41.5904298,11.0000293 32.8814122,13.5150651 24.3818223,18.4251919 C8.8391166,27.3956767 -0.119944932,40.9710316 4.36434553,48.7427018 C6.39515919,52.2642597 10.8420066,53.9904513 16.5422468,53.9904513 C23.4222628,53.9904513 32.1312804,51.4754154 40.6308703,46.5652887 C56.1716721,37.5948038 65.135176,24.0194489 60.6483471,16.2477788 C58.6175334,12.726221 54.170686,11.0000293 48.4704458,11.0000293 Z" id="形状" fill="#2EA7E0"></path>
                <path d="M30.4691863,34.0300912 L22.3459316,34.0300912 C21.5048624,34.0299195 20.8231322,33.3480501 20.8231322,32.5069809 C20.8231322,31.6659118 21.5048624,30.9840424 22.3459316,30.9838707 L30.4691863,30.9838707 C31.3102555,30.9840424 31.9919857,31.6659118 31.9919857,32.5069809 C31.9919857,33.3480501 31.3102555,34.0299195 30.4691863,34.0300912 Z" id="路径" fill="#2EA7E0"></path>
                <path d="M26.407559,38.0917186 C25.5663684,38.0917186 24.8844487,37.4097989 24.8844487,36.5686083 L24.8844487,28.4453535 C24.8846204,27.6042844 25.5664898,26.9225542 26.4075589,26.9225542 C27.2486281,26.9225542 27.9304975,27.6042844 27.9306692,28.4453535 L27.9306692,36.5686083 C27.9306692,37.4097988 27.2487495,38.0917186 26.407559,38.0917186 L26.407559,38.0917186 Z M42.6540684,34.0300912 L36.5616274,34.0300912 C35.7205583,34.0299195 35.038828,33.3480501 35.038828,32.5069809 C35.038828,31.6659118 35.7205583,30.9840424 36.5616274,30.9838707 L42.6540684,30.9838707 C43.4951376,30.9840424 44.1768678,31.6659118 44.1768678,32.5069809 C44.1768678,33.3480501 43.4951376,34.0299195 42.6540684,34.0300912 Z" id="形状" fill="#2EA7E0"></path>
            </g>
        </g>
    </g>
</svg>