<?xml version="1.0" encoding="UTF-8"?>
<svg width="70px" height="70px" viewBox="0 0 70 70" version="1.1" xmlns="http://www.w3.org/2000/svg" xmlns:xlink="http://www.w3.org/1999/xlink">
    <title>259钻石-线性</title>
    <g id="Web" stroke="none" stroke-width="1" fill="none" fill-rule="evenodd">
        <g id="领域" transform="translate(-1163.000000, -2965.000000)" fill-rule="nonzero">
            <g id="259钻石-线性" transform="translate(1163.000000, 2965.000000)">
                <rect id="矩形" fill="#000000" opacity="0" x="0" y="0" width="70" height="70"></rect>
                <path d="M50.3125,8.640625 L19.8515625,8.640625 L4.4296875,28.65625 L35,65.734375 L65.5703125,28.3828125 L50.3125,8.640625 Z M18.7578125,28.328125 L24.3359375,13.015625 L34.5625,13.015625 L18.7578125,28.328125 L18.7578125,28.328125 Z M51.296875,28.328125 L35.4921875,13.015625 L45.6640625,13.015625 L51.296875,28.328125 Z M50.0390625,30.515625 L35.0546875,56.65625 L20.015625,30.515625 L50.0390625,30.515625 Z M22.3671875,28.328125 L35.0546875,15.640625 L47.7421875,28.328125 L22.3671875,28.328125 Z M17.5546875,30.515625 L30.6796875,53.59375 L11.6484375,30.515625 L17.5546875,30.515625 Z M52.5546875,30.515625 L58.1875,30.515625 L39.703125,53.046875 L52.5546875,30.515625 Z M59.9921875,28.328125 L53.7578125,28.3828125 L47.90625,13.0703125 L48.125,13.0703125 L59.9921875,28.328125 Z M21.984375,13.015625 L22.203125,13.015625 L16.3515625,28.328125 L10.171875,28.328125 L21.984375,13.015625 L21.984375,13.015625 Z" id="形状" fill="#2EA7E0"></path>
            </g>
        </g>
    </g>
</svg>