<?xml version="1.0" encoding="UTF-8"?>
<svg width="80px" height="80px" viewBox="0 0 80 80" version="1.1" xmlns="http://www.w3.org/2000/svg" xmlns:xlink="http://www.w3.org/1999/xlink">
    <title>安全</title>
    <g id="Web" stroke="none" stroke-width="1" fill="none" fill-rule="evenodd">
        <g id="领域" transform="translate(-226.000000, -1135.000000)" fill-rule="nonzero">
            <g id="安全" transform="translate(226.000000, 1135.000000)">
                <rect id="矩形" fill="#000000" opacity="0" x="0" y="0" width="80" height="80"></rect>
                <path d="M43.3333334,46.6666666 L43.3333334,43.3333334 L63.3333334,43.3333334 L63.3333334,36.6666666 C63.3333334,25 54.6666666,15.3333333 43.3333334,13.6666666 L43.3333334,10 L36.6666666,10 L36.6666666,13.6666666 C25.3333333,15.3333333 16.6666666,25 16.6666666,36.6666666 L16.6666666,43.3333334 L36.6666666,43.3333334 L36.6666666,61.6666666 C36.6666666,66.3333333 40.3333333,70 45,70 C49.6666666,70 53.3333334,66.3333334 53.3333334,61.6666666 L53.3333334,57.6666666 L53.3333334,60 L46.6666666,60 L46.6666666,61.6666666 C46.6666666,62.6666666 46,63.3333333 45,63.3333334 C44,63.3333334 43.3333334,62.6666667 43.3333334,61.6666666 L43.3333334,46.6666666 L43.3333334,46.6666666 Z M56.6666666,36.6666666 L23.3333334,36.6666666 C23.3333334,27.3333333 30.6666667,20 40,20 C49.3333334,20 56.6666666,27.3333334 56.6666666,36.6666666 Z" id="形状" fill="#464A9E"></path>
            </g>
        </g>
    </g>
</svg>