<?xml version="1.0" encoding="UTF-8"?>
<svg width="60px" height="60px" viewBox="0 0 60 60" version="1.1" xmlns="http://www.w3.org/2000/svg" xmlns:xlink="http://www.w3.org/1999/xlink">
    <title>渠道管理</title>
    <g id="Web" stroke="none" stroke-width="1" fill="none" fill-rule="evenodd">
        <g id="领域" transform="translate(-678.000000, -1145.000000)" fill-rule="nonzero">
            <g id="渠道管理" transform="translate(678.000000, 1145.000000)">
                <rect id="矩形" fill="#000000" opacity="0" x="0" y="0" width="60" height="60"></rect>
                <path d="M43.3333333,26.6666666 C48.8561809,26.6666666 53.3333333,22.1895141 53.3333333,16.6666666 C53.3333333,11.1438191 48.8561809,6.66666662 43.3333333,6.66666662 C37.8104859,6.66666662 33.3333333,11.1438191 33.3333333,16.6666666 C33.3333333,22.1895141 37.8104859,26.6666666 43.3333333,26.6666666 Z M43.3333334,10 C46.0297483,10 48.4606569,11.6242812 49.4925303,14.1154438 C50.5244036,16.6066064 49.9540319,19.4740586 48.0473786,21.3807119 C46.1407252,23.2873652 43.273273,23.8577369 40.7821104,22.8258636 C38.2909478,21.7939902 36.6666667,19.3630816 36.6666667,16.6666666 C36.6666667,12.9847683 39.651435,10 43.3333334,10 L43.3333334,10 Z M49.6666666,30 C47.8257175,30 46.3333334,31.4923842 46.3333334,33.3333333 C44.6628787,41.5059376 37.2077526,47.1849532 28.8850085,46.6247665 C20.5622643,46.0645797 13.9354203,39.4377357 13.3752335,31.1149915 C12.8150468,22.7922474 18.4940624,15.3371213 26.6666667,13.6666666 C28.5074432,13.6664226 29.9995581,12.1741099 29.9995581,10.3333333 C29.9995581,8.49255675 28.5074432,7.00000002 26.6666667,7.00000002 C14.7446429,8.69890635 6.07389256,19.1915594 6.65201744,31.2201381 C7.23014232,43.2487167 16.8672099,52.8614483 28.8972119,53.4091578 C40.9272139,53.9568673 51.3979099,45.2596146 53.0666667,33.3333333 C53.0666667,32.4376055 52.7065197,31.5794973 52.0669048,30.9524238 C51.4272898,30.3253503 50.5622154,29.9820854 49.6666666,30 Z" id="形状" fill="#464A9E"></path>
            </g>
        </g>
    </g>
</svg>