<?xml version="1.0" encoding="UTF-8"?>
<svg width="80px" height="80px" viewBox="0 0 80 80" version="1.1" xmlns="http://www.w3.org/2000/svg" xmlns:xlink="http://www.w3.org/1999/xlink">
    <title>信息化系统</title>
    <g id="Web" stroke="none" stroke-width="1" fill="none" fill-rule="evenodd">
        <g id="领域" transform="translate(-1133.000000, -1139.000000)" fill-rule="nonzero">
            <g id="信息化系统" transform="translate(1133.000000, 1139.000000)">
                <rect id="矩形" fill="#000000" opacity="0" x="0" y="0" width="80" height="80"></rect>
                <path d="M56.6903125,30.4421094 L56.6903125,34.8653906 C60.5849219,35.96125 63.0823437,37.8536719 63.0823437,39.6146875 C63.0823437,42.2967969 57.3110937,45.2964844 49.5880469,45.2964844 C45.935625,45.2964844 42.7304687,44.62125 40.3550781,43.6304687 L40.3550781,48.1954687 C43.01375,49.0653906 46.1572656,49.5578125 49.5880469,49.5578125 C59.7101562,49.5578125 67.34375,45.2833594 67.34375,39.6146875 C67.34375,35.3760937 63.0750781,31.9177344 56.6903125,30.4421094 Z M51.2623437,20.339375 C53.5850781,21.6803906 53.2973437,28.1784375 49.4357812,34.8667969 C47.6096094,38.0298437 45.4223437,40.468125 43.3764844,42.0297656 L47.3299219,44.3123437 C49.4127344,42.4448437 51.4107813,39.9685937 53.1261719,36.9975 C58.1872656,28.2314844 58.3021875,19.4833594 53.3930469,16.6490625 C49.7223438,14.5298437 44.5928906,16.4973437 40.1226563,21.2889844 L43.9532813,23.5004688 C46.8496875,20.675625 49.7373438,19.4589063 51.2623438,20.339375 L51.2623437,20.339375 Z M27.3449219,28.25 C26.3467188,24.3292188 26.7367969,21.2202344 28.261875,20.3396875 C30.5846875,18.9986719 36.068125,22.4967187 39.9296094,29.1850781 C41.7557812,32.348125 42.7738281,35.4614844 43.1032813,38.0139844 L47.0567188,35.7315625 C46.4808594,32.9939844 45.3355469,30.0254688 43.6200781,27.054375 C38.5589844,18.2885156 31.0403125,13.8148437 26.1311719,16.6492187 C22.4604688,18.7684375 21.5996875,24.1945312 23.5142188,30.4615625 L27.3449219,28.25 Z M23.3096875,45.1346094 C19.4150781,44.03875 16.9176563,42.1463281 16.9176563,40.3853125 C16.9176563,37.7032031 22.6889844,34.7035156 30.4119531,34.7035156 C34.064375,34.7035156 37.2695312,35.3785156 39.6449219,36.3695312 L39.6449219,31.8045312 C36.98625,30.9346094 33.8427344,30.4421875 30.4119531,30.4421875 C20.2898437,30.4421875 12.65625,34.7166406 12.65625,40.3853125 C12.65625,44.6238281 16.9249219,48.0823437 23.3096875,49.5578906 L23.3096875,45.1346094 Z M28.9727344,59.660625 C26.65,58.3196094 26.9377344,51.8215625 30.7992969,45.1332031 C32.6254687,41.9701562 34.8128125,39.531875 36.8585937,37.9702344 L32.9051562,35.6876562 C30.8224219,37.5551562 28.8242969,40.0314062 27.1089062,43.0025 C22.0478125,51.7685156 21.9328906,60.5166406 26.8420312,63.3509375 C30.5128125,65.4701562 35.6421875,63.5026562 40.1125,58.7110156 L36.281875,56.499375 C33.3854687,59.324375 30.4978125,60.5409375 28.9727344,59.660625 L28.9727344,59.660625 Z M52.8903125,51.7499219 C53.8885156,55.6707031 53.4983594,58.7796875 51.9732812,59.6602344 C49.6505469,61.00125 44.1670313,57.5032031 40.3055469,50.8148437 C38.479375,47.6517969 37.4613281,44.5384375 37.131875,41.9857031 L33.1784375,44.2682812 C33.7542969,47.0058594 34.8997656,49.974375 36.6151562,52.9454687 C41.67625,61.7114844 49.1948438,66.1850781 54.1039844,63.3507812 C57.7747656,61.2315625 58.6354688,55.8054687 56.7210156,49.5382812 L52.8903125,51.7499219 L52.8903125,51.7499219 Z" id="形状" fill="#464A9E"></path>
            </g>
        </g>
    </g>
</svg>