<?xml version="1.0" encoding="UTF-8"?>
<svg width="678px" height="761px" viewBox="0 0 678 761" version="1.1" xmlns="http://www.w3.org/2000/svg" xmlns:xlink="http://www.w3.org/1999/xlink">
    <title>蒙版</title>
    <g id="Web" stroke="none" stroke-width="1" fill="none" fill-rule="evenodd" opacity="0.200000003">
        <g id="首页" transform="translate(-17.000000, -969.000000)" fill="#E3E3E3">
            <path d="M389.653097,978.110743 L660.296021,1134.35899 C667.839707,1138.71413 678.991352,1145.52362 693.750956,1154.78746 C694.592974,1155.31593 694.847136,1156.42693 694.31865,1157.26894 C694.197147,1157.46253 694.039889,1157.6312 693.85528,1157.76595 L675.531318,1171.14077 L675.531318,1171.14077 L664.038184,1178.75518 L656.548969,1183.69175 L649.198055,1188.51654 L638.430994,1195.54417 L631.425828,1200.08955 L621.177389,1206.69806 L614.51797,1210.96402 L604.788152,1217.1534 L595.369504,1223.09131 L589.263278,1226.9102 L580.363247,1232.42899 L574.602765,1235.96847 L568.98058,1239.39618 L563.496693,1242.71213 L558.151102,1245.91631 L552.943807,1249.00873 L547.874809,1251.98938 L542.944107,1254.85827 L538.151702,1257.61539 L533.497591,1260.26074 C532.733431,1260.69232 531.975033,1261.11924 531.222397,1261.54151 L526.775731,1264.01921 L522.467359,1266.38516 L518.297283,1268.63933 L514.265501,1270.78174 C513.605062,1271.1295 512.950385,1271.4726 512.301471,1271.81104 L508.477131,1273.7858 L504.791086,1275.6488 L501.243335,1277.40003 L497.833877,1279.0395 C497.277159,1279.30344 496.726203,1279.56271 496.181009,1279.81733 L492.978992,1281.28915 C491.934702,1281.76113 490.913461,1282.21448 489.915269,1282.64921 L486.989839,1283.8975 C485.561697,1284.49371 484.185415,1285.048 482.860993,1285.56039 L480.281295,1286.52927 C471.494364,1289.72478 465.248558,1290.86662 461.543838,1289.95481 C440.967531,1284.89058 427.244713,1269.97587 416.072794,1252.14868 L414.493694,1249.58288 C413.972802,1248.7215 413.45723,1247.85427 412.946513,1246.98194 L411.428462,1244.35037 L409.936755,1241.69266 L408.468604,1239.0133 L407.021222,1236.31679 L404.882991,1232.2497 L402.775808,1228.16931 L397.288991,1217.43981 L394.940751,1212.91473 L392.574747,1208.46541 L390.980801,1205.55215 C382.435336,1190.14225 373.12161,1176.86459 360.278679,1170.17124 C327.209887,1152.93678 281.449734,1146.01687 222.99822,1149.41152 L220.065068,1149.58985 C213.318022,1150.01828 208.195787,1155.83489 208.624237,1162.58161 C208.758527,1164.69625 209.43947,1166.73981 210.600447,1168.51238 L214.399777,1174.32907 L221.768174,1185.70646 L227.092992,1194.0155 L232.245113,1202.13253 L235.583918,1207.43722 L242.031265,1217.7906 L245.139808,1222.83929 L249.658707,1230.25231 L252.575364,1235.08767 L255.415267,1239.83768 L258.178416,1244.50237 L262.179225,1251.33939 L264.750489,1255.79074 L267.244998,1260.15676 L269.662753,1264.43744 L272.003754,1268.63278 L274.268001,1272.7428 C274.63898,1273.42069 275.00676,1274.09502 275.371342,1274.7658 L277.520458,1278.74781 L279.592819,1282.64449 L281.588427,1286.45583 L283.50728,1290.18184 C283.820693,1290.79573 284.130908,1291.40607 284.437924,1292.01285 L286.241646,1295.61086 C286.53587,1296.20341 286.826896,1296.79241 287.114724,1297.37786 L288.803315,1300.84787 L290.415152,1304.23254 L291.950235,1307.53188 L293.408563,1310.74588 C293.645222,1311.27444 293.878683,1311.79944 294.108945,1312.32089 L295.452142,1315.40689 L296.718585,1318.40756 L297.908275,1321.32289 C298.483931,1322.75923 299.030804,1324.16356 299.548894,1325.5359 L300.546698,1328.2379 C300.706602,1328.68112 300.863309,1329.12079 301.016817,1329.5569 L301.89949,1332.1309 C302.180921,1332.97467 302.449561,1333.80423 302.705408,1334.61956 L303.434572,1337.02289 L304.086982,1339.34089 C304.496338,1340.85778 304.854524,1342.31777 305.16154,1343.72088 L305.583688,1345.78288 C306.223306,1349.14842 306.543115,1352.15841 306.543115,1354.81284 C306.543115,1360.06403 305.29152,1366.68995 302.788331,1374.69061 L301.999826,1377.13205 L301.136226,1379.65598 L300.19753,1382.26239 L299.183738,1384.95128 L298.094851,1387.72266 C297.907112,1388.19143 297.716244,1388.66363 297.522246,1389.13928 L296.320716,1392.03438 C296.114203,1392.52377 295.90456,1393.0166 295.691789,1393.51286 L294.377615,1396.53169 C293.927041,1397.55171 293.463951,1398.58548 292.988345,1399.633 L291.523979,1402.8168 L289.984518,1406.08308 L288.369961,1409.43185 C288.09461,1409.99685 287.81613,1410.56529 287.534521,1411.13716 L285.807321,1414.60965 L284.005025,1418.16463 L282.127633,1421.80209 L280.175145,1425.52203 L278.147562,1429.32446 L276.044883,1433.20937 L272.75006,1439.1914 L270.459642,1443.28252 L268.094128,1447.45613 L265.653519,1451.71222 L263.137813,1456.05079 L260.547013,1460.47185 L257.881116,1464.97539 L255.140124,1469.56142 L252.324036,1474.22993 L247.9591,1481.38735 L244.955273,1486.26208 L240.308728,1493.72882 L235.493217,1501.38114 L232.189008,1506.5858 L228.809702,1511.87294 L223.599939,1519.95831 L218.221212,1528.22927 L212.673518,1536.68582 L210.767578,1539.5749 C207.041256,1545.21563 208.593406,1552.80898 214.234402,1556.53512 C216.006961,1557.70598 218.053729,1558.39541 220.173479,1558.53563 L224.988249,1558.83961 L229.725017,1559.10939 L234.383784,1559.34499 L238.96455,1559.54639 L243.467314,1559.7136 C244.211274,1559.73862 244.951985,1559.76222 245.689445,1559.78439 L250.075206,1559.90031 L254.382966,1559.98204 L258.612725,1560.02958 L262.764481,1560.04293 L266.838237,1560.02209 C267.510696,1560.01576 268.179905,1560.00802 268.845864,1559.99884 L272.802616,1559.92671 L276.681368,1559.82039 C277.961285,1559.77925 279.228201,1559.73241 280.482117,1559.67987 L284.204866,1559.50516 L287.849612,1559.29626 C289.051527,1559.22093 290.240442,1559.1399 291.416357,1559.05317 L294.905101,1558.77589 C295.480058,1558.72683 296.051765,1558.67634 296.620222,1558.62443 L299.991963,1558.29585 C300.547419,1558.23824 301.099626,1558.17921 301.648583,1558.11875 L304.903321,1557.73889 L308.080058,1557.32484 C308.603015,1557.25298 309.12272,1557.17969 309.639176,1557.10499 L312.698911,1556.63965 C316.726556,1555.9964 320.546198,1555.26198 324.157835,1554.43637 L326.827561,1553.80007 C341.73501,1550.0975 352.885382,1544.74801 360.278679,1537.75162 C364.815358,1533.45848 369.410461,1528.15285 374.055207,1522.18751 L376.048826,1519.59157 L378.04837,1516.92103 L380.053685,1514.18204 L382.064618,1511.38079 L384.081015,1508.52344 L386.102722,1505.61617 L389.144905,1501.17516 L393.218301,1495.13667 L404.511712,1478.2224 L407.612624,1473.62811 L409.684359,1470.59027 L412.798272,1466.08646 L414.878195,1463.12824 L416.961124,1460.21265 L419.046905,1457.34589 L421.135386,1454.53411 C435.067242,1435.98591 449.168775,1421.51496 463.235147,1419.34961 C468.575335,1418.52756 477.895593,1420.80119 491.195921,1426.17051 L494.217065,1427.41465 L497.369241,1428.76071 C497.905522,1428.99354 498.447264,1429.23062 498.994465,1429.47195 L502.343187,1430.97088 L505.82294,1432.57173 L509.433724,1434.27449 L513.17554,1436.07916 C513.810095,1436.38844 514.45011,1436.70196 515.095584,1437.01972 L519.033946,1438.97727 L523.103339,1441.03674 L527.303764,1443.19812 L531.635219,1445.46142 L536.097706,1447.82663 L540.691224,1450.29376 L545.415772,1452.8628 L550.271353,1455.53376 L555.257964,1458.30664 L560.375606,1461.18143 L565.624279,1464.15814 L571.003984,1467.23676 L579.319224,1472.04578 L585.026507,1475.3792 L590.86482,1478.81452 L599.867974,1484.15861 L606.033865,1487.84873 L615.528386,1493.57499 L625.317726,1499.53057 L632.007742,1503.62835 L642.288449,1509.96611 L652.863977,1516.53318 L663.734324,1523.32957 L674.899491,1530.35526 L693.464636,1541.47834 C694.317379,1541.98928 694.594493,1543.09476 694.083575,1543.94751 C693.935738,1544.19426 693.730918,1544.40199 693.486275,1544.55328 C678.468235,1553.84103 667.404817,1560.53694 660.296021,1564.64101 L389.653097,1720.88926 C368.611726,1733.03691 342.687687,1733.03691 321.646315,1720.88926 L51.0033911,1564.64101 C29.9620195,1552.49336 17,1530.04356 17,1505.74825 L17,1193.25175 C17,1168.95644 29.9620195,1146.50664 51.0033911,1134.35899 L321.646315,978.110743 C342.687687,965.963086 368.611726,965.963086 389.653097,978.110743 Z" id="蒙版"></path>
        </g>
    </g>
</svg>