<?xml version="1.0" encoding="UTF-8"?>
<svg width="328px" height="101px" viewBox="0 0 328 101" version="1.1" xmlns="http://www.w3.org/2000/svg" xmlns:xlink="http://www.w3.org/1999/xlink">
    <title>编组 2</title>
    <defs>
        <filter id="filter-1">
            <feColorMatrix in="SourceGraphic" type="matrix" values="0 0 0 0 0.105882 0 0 0 0 0.380392 0 0 0 0 1.000000 0 0 0 1.000000 0"></feColorMatrix>
        </filter>
    </defs>
    <g id="logo" stroke="none" stroke-width="1" fill="none" fill-rule="evenodd">
        <g id="画板" transform="translate(-51.000000, -26.000000)">
            <g id="编组-2" transform="translate(51.000000, 26.000000)">
                <g filter="url(#filter-1)" id="编组-5">
                    <g transform="translate(104.000000, 17.000000)">
                        <g id="编组" transform="translate(2.000000, 0.000000)" fill="#393C40" fill-rule="nonzero">
                            <path d="M102.247631,6.36223838 L102.247631,2.2403926 L61.5727849,2.2403926 L61.5727849,6.36223838 L102.247631,6.36223838 Z M104.868727,39.3370046 L99.3445031,28.3432956 L89.4280687,28.3432956 L92.6429858,34.6511614 L68.7801503,35.3360154 L79.5569147,19.5843733 L104.959288,19.5843733 L104.959288,15.9798785 L57.5053002,15.9798785 L57.5053002,19.5843733 L69.7310413,19.5843733 L58.7278743,35.5883301 L58.7278743,39.1928249 L94.4089262,38.1475214 L94.9975729,39.3370046 L104.868727,39.3370046 Z" id="云"></path>
                            <path d="M160.42555,39.8445092 L160.42555,32.1414981 L163.645642,31.8677871 L163.645642,27.2146991 L160.42555,27.5275118 L160.42555,0 L153.132988,0 L153.132988,28.153137 L137.884905,29.5216923 L137.884905,34.1356787 L153.132988,32.806225 L153.132988,39.8445092 L160.42555,39.8445092 Z M127.880229,39.8445092 L127.880229,12.5247966 L135.173249,12.5247966 L135.173249,8.64993766 L127.880229,8.64993766 L127.880229,4.38367882 L135.173249,3.87485895 L135.173249,0 L113.479997,1.4873196 L113.479997,5.36217855 L120.773018,4.89249868 L120.773018,8.64993766 L113.479997,8.64993766 L113.479997,12.5247966 L120.773018,12.5247966 L120.773018,39.8445092 L127.880229,39.8445092 Z M151.443188,12.3655373 L151.443188,6.55569758 L137.884905,2.74789719 L137.884905,8.55773696 L151.443188,12.3655373 Z M120.259139,38.4705606 L120.259139,15.1134345 L113.479997,15.1134345 L113.479997,38.4705606 L120.259139,38.4705606 Z M136.529077,38.4705606 L136.529077,15.1134345 L129.749936,15.1134345 L129.749936,38.4705606 L136.529077,38.4705606 Z M151.443188,24.7310747 L151.443188,18.8819793 L137.884905,15.1134345 L137.884905,20.96253 L151.443188,24.7310747 Z" id="科"></path>
                            <path d="M199.768307,40 L205.787113,34.6355685 L211.000252,40 L220.952608,40 L211.000252,29.9319728 L220.33651,21.5354713 L220.33651,13.8386783 L209.815447,13.8386783 L209.815447,7.30806608 L221,7.30806608 L221,3.65403304 L209.815447,3.65403304 L209.815447,0.155490768 L202.2327,0.155490768 L202.2327,3.65403304 L191.522069,3.65403304 L191.522069,7.30806608 L202.2327,7.30806608 L202.2327,13.8386783 L191.711638,13.8386783 L191.711638,17.4927114 L212.374625,17.4927114 L212.374625,19.941691 L206.403211,25.2672498 L201.758778,20.563654 L192.090775,20.6025267 L201.14268,29.8931001 L189.815951,40 L199.768307,40 Z M187.401462,40 L187.401462,25.0392264 L189.622792,24.4951983 L189.622792,21.2698887 L187.401462,21.7750576 L187.401462,9.80643877 L189.815951,9.80643877 L189.815951,6.27025593 L187.401462,6.27025593 L187.401462,1.52943936 L179.192201,1.52943936 L179.192201,6.27025593 L172.190184,6.27025593 L172.190184,9.80643877 L179.192201,9.80643877 L179.192201,23.6014378 L172.190184,25.194663 L172.190184,28.4199727 L179.192201,26.8656066 L179.192201,35.5311975 L174.121775,35.5311975 L174.121775,36.930127 C175.216343,37.0078453 176.157994,37.3381481 176.946727,37.9210354 C177.73546,38.5039226 178.194212,39.1969109 178.322985,40 L178.322985,40 L187.401462,40 Z" id="技"></path>
                            <path d="M6.26857818,33.130257 L6.26857818,32.4806962 L16.7322817,32.4806962 L16.7322817,33.130257 L23.0490798,33.130257 L23.0490798,10.5866741 L20.10767,10.5866741 L21.9882434,7.26245082 L21.9882434,3.44150456 L9.3064276,3.44150456 L11.1387812,0.155490768 L4.82198321,0.155490768 L0,8.79082933 L6.31679801,8.79082933 L7.13653515,7.26245082 L15.6714454,7.26245082 L13.790872,10.5866741 L8.39025079,10.5866741 L6.26857818,12.6499851 L6.26857818,10.5866741 L0,10.5866741 L0,33.130257 L6.26857818,33.130257 Z M50.1656442,7.02523374 L50.1656442,3.31399328 L40.7735837,3.31399328 L40.0029531,0.155490768 L32.1521538,0.155490768 L32.9227844,3.31399328 L23.0490798,3.31399328 L23.0490798,7.02523374 L50.1656442,7.02523374 Z M39.905458,40 L39.905458,22.5810127 L41.9053672,22.5810127 L41.9053672,23.197614 L48.809816,23.197614 L48.809816,8.39918233 L33.3343275,8.39918233 L31.0487169,10.364599 L31.0487169,8.39918233 L24.0014175,8.39918233 L24.0014175,23.197614 L30.9534831,23.197614 L30.9534831,22.5810127 L32.9057755,22.5810127 L32.9057755,35.3754901 L29.9535285,35.3754901 L31.3820351,25.3171811 L24.8585215,25.3171811 L23.0490798,37.417982 L29.6202102,37.417982 L29.6202102,37.3794444 C29.874167,37.507903 30.1281237,37.6492075 30.3820804,37.8033578 C31.2391844,38.4199591 31.7312256,39.1521732 31.858204,40 L31.858204,40 L39.905458,40 Z M42.0306748,19.3907711 L31.1840491,19.3907711 L31.1840491,12.5210281 L42.0306748,12.5210281 L42.0306748,19.3907711 Z M8.13496933,20.7647197 L5.42331288,20.7647197 L5.42331288,15.2689253 L8.13496933,15.2689253 L8.13496933,20.7647197 Z M16.2699387,20.7647197 L13.5582822,20.7647197 L13.5582822,15.2689253 L16.2699387,15.2689253 L16.2699387,20.7647197 Z M8.13496933,29.0084112 L5.42331288,29.0084112 L5.42331288,23.5126169 L8.13496933,23.5126169 L8.13496933,29.0084112 Z M16.2699387,29.0084112 L13.5582822,29.0084112 L13.5582822,23.5126169 L16.2699387,23.5126169 L16.2699387,29.0084112 Z M48.809816,37.2521028 L47.1267188,24.8865655 L40.6748466,24.8865655 L42.4046964,37.2521028 L48.809816,37.2521028 Z M0,40 L23.0490798,38.6055447 L23.0490798,34.5042056 L0,35.8576475 L0,40 Z" id="鲸"></path>
                        </g>
                        <path d="M19.734375,66.90625 L22.96875,63.8125 L7.125,63.8125 C6.03125,63.8125 5.09375,63.421875 4.3125,62.640625 C3.53125,61.859375 3.140625,60.921875 3.140625,59.828125 C3.140625,58.703125 3.53125,57.75 4.3125,56.96875 C5.09375,56.1875 6.03125,55.796875 7.125,55.796875 L19.734375,55.796875 L22.96875,52.703125 L7.125,52.703125 C5.84375,52.703125 4.65625,53.0234375 3.5625,53.6640625 C2.46875,54.3046875 1.6015625,55.1640625 0.9609375,56.2421875 C0.3203125,57.3203125 0,58.515625 0,59.828125 C0,61.109375 0.3203125,62.2890625 0.9609375,63.3671875 C1.6015625,64.4453125 2.46875,65.3046875 3.5625,65.9453125 C4.65625,66.5859375 5.84375,66.90625 7.125,66.90625 L19.734375,66.90625 Z M47.109375,55.796875 L50.578125,52.703125 L31.125,52.703125 L27.65625,55.796875 L47.109375,55.796875 Z M47.109375,61.328125 L50.578125,58.234375 L31.125,58.234375 L27.65625,61.328125 L47.109375,61.328125 Z M47.109375,66.90625 L50.578125,63.8125 L31.125,63.8125 L27.65625,66.90625 L47.109375,66.90625 Z M68.296875,66.90625 L68.296875,55.796875 L75.140625,55.796875 L78.140625,52.65625 L58.3125,52.65625 L55.265625,55.796875 L65.203125,55.796875 L65.203125,66.90625 L68.296875,66.90625 Z M85.96875,66.90625 L85.96875,52 L82.828125,54.859375 L82.828125,66.90625 L85.96875,66.90625 Z M110.390625,66.90625 L113.625,63.8125 L97.78125,63.8125 C96.6875,63.8125 95.75,63.421875 94.96875,62.640625 C94.1875,61.859375 93.796875,60.921875 93.796875,59.828125 C93.796875,58.703125 94.1875,57.75 94.96875,56.96875 C95.75,56.1875 96.6875,55.796875 97.78125,55.796875 L110.390625,55.796875 L113.625,52.703125 L97.78125,52.703125 C96.5,52.703125 95.3125,53.0234375 94.21875,53.6640625 C93.125,54.3046875 92.2578125,55.1640625 91.6171875,56.2421875 C90.9765625,57.3203125 90.65625,58.515625 90.65625,59.828125 C90.65625,61.109375 90.9765625,62.2890625 91.6171875,63.3671875 C92.2578125,64.4453125 93.125,65.3046875 94.21875,65.9453125 C95.3125,66.5859375 96.5,66.90625 97.78125,66.90625 L110.390625,66.90625 Z M141.234375,66.90625 L141.234375,63.8125 L121.453125,63.8125 L121.453125,52 L118.3125,55.046875 L118.3125,64.890625 C118.3125,65.453125 118.515625,65.9296875 118.921875,66.3203125 C119.328125,66.7109375 119.8125,66.90625 120.375,66.90625 L141.234375,66.90625 Z M163.078125,66.90625 C164.671875,66.90625 166.023438,66.3515625 167.132812,65.2421875 C168.242188,64.1328125 168.796875,62.796875 168.796875,61.234375 L168.796875,58.421875 C168.796875,56.859375 168.242188,55.515625 167.132812,54.390625 C166.023438,53.265625 164.671875,52.703125 163.078125,52.703125 L151.59375,52.703125 C150.03125,52.703125 148.695312,53.265625 147.585938,54.390625 C146.476562,55.515625 145.921875,56.859375 145.921875,58.421875 L145.921875,61.234375 C145.921875,62.796875 146.476562,64.1328125 147.585938,65.2421875 C148.695312,66.3515625 150.03125,66.90625 151.59375,66.90625 L163.078125,66.90625 Z M163.078125,63.8125 L151.59375,63.8125 C150.875,63.8125 150.265625,63.5625 149.765625,63.0625 C149.265625,62.5625 149.015625,61.953125 149.015625,61.234375 L149.015625,58.421875 C149.015625,57.703125 149.265625,57.09375 149.765625,56.59375 C150.265625,56.09375 150.875,55.84375 151.59375,55.84375 L163.078125,55.84375 C163.796875,55.84375 164.414062,56.09375 164.929688,56.59375 C165.445312,57.09375 165.703125,57.703125 165.703125,58.421875 L165.703125,61.234375 C165.703125,61.953125 165.445312,62.5625 164.929688,63.0625 C164.414062,63.5625 163.796875,63.8125 163.078125,63.8125 Z M190.734375,66.90625 C192.296875,66.90625 193.640625,66.34375 194.765625,65.21875 C195.890625,64.09375 196.453125,62.75 196.453125,61.1875 L196.453125,52.65625 L193.359375,52.65625 L193.359375,61.1875 C193.359375,61.90625 193.101562,62.515625 192.585938,63.015625 C192.070312,63.515625 191.453125,63.765625 190.734375,63.765625 L179.15625,63.765625 C178.4375,63.765625 177.828125,63.515625 177.328125,63.015625 C176.828125,62.515625 176.578125,61.90625 176.578125,61.1875 L176.578125,52.65625 L173.484375,52.65625 L173.484375,61.1875 C173.484375,62.75 174.039062,64.09375 175.148438,65.21875 C176.257812,66.34375 177.59375,66.90625 179.15625,66.90625 L190.734375,66.90625 Z M216.75,66.90625 C218.03125,66.90625 219.21875,66.59375 220.3125,65.96875 C221.40625,65.34375 222.289062,64.4921875 222.960938,63.4140625 C223.632812,62.3359375 223.96875,61.15625 223.96875,59.875 C223.96875,58.5625 223.640625,57.359375 222.984375,56.265625 C222.328125,55.171875 221.398438,54.3046875 220.195312,53.6640625 C218.992188,53.0234375 217.609375,52.703125 216.046875,52.703125 L216.046875,52.703125 L204.140625,52.703125 L201.140625,55.796875 L216.796875,55.796875 C217.921875,55.796875 218.882812,56.1953125 219.679688,56.9921875 C220.476562,57.7890625 220.875,58.75 220.875,59.875 C220.875,60.96875 220.484375,61.8984375 219.703125,62.6640625 C218.921875,63.4296875 217.984375,63.8125 216.890625,63.8125 L216.890625,63.8125 L204.421875,63.8125 L204.421875,58.234375 L201.140625,61.328125 L201.140625,65.875 C201.140625,66.15625 201.234375,66.3984375 201.421875,66.6015625 C201.609375,66.8046875 201.84375,66.90625 202.125,66.90625 L202.125,66.90625 L216.75,66.90625 Z" id="CetiCloud" fill="#393C40" fill-rule="nonzero"></path>
                    </g>
                </g>
                <path d="M49.3943722,1.20917873 L85.2675138,21.9464623 C85.8988657,22.3114296 86.7208799,22.8062653 87.7335563,23.4309694 C88.5796201,23.9529088 88.8423901,25.061891 88.3204622,25.907962 C88.1981973,26.1061595 88.0386343,26.2787487 87.8506207,26.4161599 L87.2869199,26.8281448 L87.2869199,26.8281448 L85.7635295,27.8387299 L84.7708501,28.4939112 L83.7965021,29.1342586 L82.3693512,30.0669666 L81.4408314,30.6702298 L80.0824227,31.5473113 L79.199731,32.1134902 L77.9100643,32.9349455 L76.6616427,33.723025 L75.8522754,34.2298693 L74.6725954,34.9623227 L73.9090558,35.4320829 L73.1638472,35.8870096 L72.4369696,36.3271026 L71.7284229,36.7523621 L71.0382071,37.162788 L70.3663223,37.5583804 L69.7127683,37.9391392 L69.0775451,38.3050645 L68.4606528,38.6561562 C68.3593649,38.7134354 68.2588409,38.7700965 68.1590806,38.8261396 L67.5696845,39.1549811 L66.998619,39.4689891 L66.4458843,39.7681636 L65.9114803,40.0525047 C65.8239405,40.0986587 65.7371645,40.1441947 65.6511522,40.1891127 L65.1442442,40.4512036 L64.6556667,40.698461 L64.1854199,40.9308851 L63.7335036,41.1484757 C63.6597118,41.1835047 63.5866837,41.2179156 63.5144194,41.2517084 L63.089999,41.447049 C62.9515806,41.5096902 62.8162172,41.5698593 62.683909,41.6275561 L62.2961495,41.7932298 C62.1068523,41.8723584 61.9244291,41.9459244 61.7488798,42.0139279 L61.4069463,42.1425183 C60.2422574,42.5666262 59.4143892,42.7181716 58.9233364,42.5971567 C56.1959909,41.9250305 54.3770606,39.9455491 52.8962466,37.5795227 L52.6869403,37.2389888 C52.6178972,37.1246672 52.5495592,37.0095686 52.4818647,36.8937923 L52.2806504,36.5445299 L52.0829278,36.1917981 L51.8883275,35.8361934 L51.6964801,35.4783126 L51.4130621,34.9385283 L51.1337596,34.3969781 L50.4064936,32.9729577 L50.0952394,32.3723886 L49.7816306,31.7818741 L49.5703565,31.3952263 C48.4376733,29.3500223 47.2031589,27.5878099 45.5008558,26.6994679 C41.1176581,24.4121088 35.0522476,23.493698 27.3046241,23.9442354 L26.9158412,23.9679038 C26.0215345,24.0247649 25.3425933,24.7967459 25.3993834,25.6921716 C25.4171832,25.9728266 25.5074408,26.2440489 25.6613259,26.479304 L26.1649189,27.2512962 L27.1415841,28.761304 L27.8473774,29.8640803 L28.5302801,30.9413741 L28.9728315,31.6454131 L29.8274136,33.0195143 L30.2394443,33.6895766 L30.8384148,34.6734347 L31.2250115,35.3151831 L31.6014345,35.945606 L31.967684,36.5647034 L32.4979827,37.472114 L32.8387982,38.0628975 L33.1694401,38.6423554 L33.4899084,39.2104878 L33.8002031,39.7672946 L34.1003242,40.3127759 C34.1494966,40.4027456 34.198245,40.4922435 34.2465696,40.5812695 L34.5314303,41.1097624 L34.8061174,41.6269299 L35.070631,42.1327717 L35.3249709,42.6272881 C35.3665131,42.7087637 35.4076313,42.7897674 35.4483257,42.8702992 L35.6874052,43.3478272 C35.726404,43.4264714 35.7649789,43.5046437 35.8031299,43.5823441 L36.026949,44.0428838 L36.2405946,44.4920979 L36.4440665,44.9299865 L36.6373648,45.3565496 C36.6687334,45.4266996 36.6996781,45.4963778 36.7301989,45.565584 L36.9082368,45.9751588 L37.0761012,46.373408 L37.2337919,46.7603316 C37.3100939,46.950962 37.3825808,47.1373454 37.4512525,47.3194817 L37.5835093,47.6780914 C37.6047043,47.7369159 37.6254754,47.7952685 37.6458226,47.8531492 L37.7628189,48.1947707 C37.8001221,48.3067569 37.8357297,48.4168556 37.8696417,48.5250666 L37.9662909,48.844037 L38.0527664,49.1516818 C38.1070256,49.3530031 38.1545024,49.5467741 38.1951968,49.7329948 L38.2511516,50.0066629 C38.3359315,50.4533386 38.3783215,50.8528245 38.3783215,51.2051206 C38.3783215,51.9020591 38.2124253,52.7814525 37.8806329,53.843301 L37.7761183,54.1673292 L37.66165,54.5023047 L37.5372278,54.8482274 L37.4028519,55.2050975 L37.2585222,55.5729149 C37.2336378,55.6351301 37.2083386,55.6978014 37.1826247,55.7609288 L37.0233644,56.1451672 C36.9959915,56.2101192 36.9682039,56.2755273 36.9400015,56.3413916 L36.7658105,56.7420509 C36.7060879,56.8774285 36.6447063,57.0146307 36.5816658,57.1536574 L36.3875672,57.5762113 L36.1835149,58.0097125 L35.9695088,58.454161 C35.9330116,58.529148 35.8960997,58.6045912 35.8587731,58.6804905 L35.6298363,59.1413599 L35.3909458,59.6131766 L35.1421015,60.0959406 L34.8833035,60.589652 L34.6145516,61.0943106 L34.335846,61.6099165 L33.8991243,62.4038516 L33.5955343,62.9468258 L33.2819905,63.5007473 L32.9584929,64.065616 L32.6250415,64.6414321 L32.2816364,65.2281955 L31.9282775,65.8259062 L31.5649649,66.4345641 L31.1916984,67.0541694 L30.6131354,68.0041035 L30.2149846,68.651077 L29.599095,69.6420635 L28.9608094,70.6576814 L28.5228434,71.3484441 L28.0749237,72.0501542 L27.3843808,73.1232454 L26.6714419,74.220968 L25.936107,75.3433221 L25.6834787,75.7267614 C25.1895627,76.4753989 25.3952969,77.4831886 26.1429988,77.9777226 C26.3779477,78.133119 26.6492424,78.2246203 26.9302107,78.2432304 L27.5683982,78.2835746 L28.1962468,78.3193808 L28.8137564,78.3506491 L29.4209271,78.3773794 L30.0177588,78.3995717 C30.1163692,78.4028923 30.2145488,78.4060238 30.3122976,78.4089662 L30.8936209,78.4243516 L31.4646053,78.435199 L32.0252507,78.4415085 L32.5755572,78.4432801 L33.1155247,78.4405136 C33.2046578,78.4396744 33.29336,78.4386461 33.3816314,78.4374287 L33.9060905,78.4278553 L34.4202107,78.413744 C34.589861,78.4082839 34.7577881,78.4020675 34.923992,78.3950947 L35.4174343,78.3719075 L35.9005377,78.3441823 C36.059849,78.3341842 36.2174371,78.3234298 36.3733021,78.3119191 L36.8357276,78.275118 C36.9119369,78.2686063 36.9877155,78.2619056 37.0630632,78.2550157 L37.5099803,78.2114077 C37.5836049,78.2037615 37.6567987,78.1959262 37.7295618,78.1879019 L38.1609704,78.1374869 L38.5820401,78.0825339 C38.6513569,78.072997 38.7202428,78.0632709 38.7886979,78.0533557 L39.1942592,77.9915958 C39.728115,77.906224 40.2344003,77.808751 40.713115,77.6991767 L41.0669816,77.614727 C43.042932,77.1233212 44.5208901,76.413337 45.5008558,75.4847745 C46.1021829,74.9149894 46.7112541,74.2108252 47.3269052,73.4191044 L47.5911551,73.0745714 L47.8561904,72.7201362 L48.1219906,72.3566179 L48.3885355,71.9848356 L48.6558046,71.6056082 L48.9237776,71.2197549 L49.3270124,70.6303429 L49.8669323,69.8289138 L51.36385,67.5840503 L51.7748691,66.9742953 L52.0494733,66.5711128 L52.4622157,65.9733679 L52.737905,65.5807516 L53.0139929,65.1937951 L53.2904587,64.8133175 L53.5672823,64.4401378 C55.4139202,61.9784197 57.2830483,60.0578334 59.1475158,59.7704481 C59.8553463,59.6613445 61.0907265,59.9631012 62.8536567,60.675718 L63.2541029,60.8408404 L63.671917,61.0194891 C63.743,61.0503911 63.8148067,61.0818567 63.887337,61.1138858 L64.331203,61.3128239 L64.7924368,61.5252883 L65.2710386,61.7512789 L65.7670082,61.9907957 C65.8511171,62.0318424 65.9359497,62.0734527 66.021506,62.1156265 L66.5435275,62.3754328 L67.0829169,62.6487653 L67.6396741,62.9356241 L68.2137993,63.2360092 L68.8052924,63.5499205 L69.4141533,63.877358 L70.0403822,64.2183219 L70.683979,64.572812 L71.3449436,64.9408283 L72.0232762,65.3223709 L72.7189767,65.7174398 L73.432045,66.126035 L74.5342123,66.7642894 L75.2907004,67.2067002 L76.0645564,67.6626373 L77.2579052,68.3719046 L78.0751809,68.8616573 L79.3336594,69.6216482 L80.6312155,70.4120731 L81.5179629,70.9559308 L82.8806486,71.7970792 L84.2824122,72.6686617 L85.7232535,73.5706782 L87.2031726,74.5031289 L87.4597495,74.6570536 C88.3122212,75.1684703 88.5887057,76.2741191 88.0772927,77.126593 C87.927337,77.3765539 87.7189194,77.5863576 87.4699579,77.7379667 C86.5550254,78.2951297 85.8208774,78.7336534 85.2675138,79.0535377 L49.3943722,99.7908213 C46.6053834,101.40306 43.1692074,101.40306 40.3802185,99.7908213 L4.50707688,79.0535377 C1.718088,77.4412994 0,74.4617602 0,71.2372835 L0,29.7627165 C0,26.5382398 1.718088,23.5587006 4.50707688,21.9464623 L40.3802185,1.20917873 C43.1692074,-0.403059577 46.6053834,-0.403059577 49.3943722,1.20917873 Z" id="蒙版" fill="#1B61FF"></path>
            </g>
        </g>
    </g>
</svg>