<?xml version="1.0" encoding="UTF-8"?>
<svg width="163px" height="50px" viewBox="0 0 163 50" version="1.1" xmlns="http://www.w3.org/2000/svg" xmlns:xlink="http://www.w3.org/1999/xlink">
    <title>编组 5</title>
    <defs>
        <filter id="filter-1">
            <feColorMatrix in="SourceGraphic" type="matrix" values="0 0 0 0 1.000000 0 0 0 0 1.000000 0 0 0 0 1.000000 0 0 0 1.000000 0"></feColorMatrix>
        </filter>
    </defs>
    <g id="Web" stroke="none" stroke-width="1" fill="none" fill-rule="evenodd">
        <g id="编组-5" transform="translate(-120.000000, -42.000000)" filter="url(#filter-1)">
            <g transform="translate(120.000000, 42.000000)">
                <g id="编组" transform="translate(52.419355, 8.064516)" fill="#393C40" fill-rule="nonzero">
                    <path d="M50.3701294,3.20677338 L50.3701294,1.12923014 L30.3325279,1.12923014 L30.3325279,3.20677338 L50.3701294,3.20677338 Z M51.6613565,19.8271193 L48.9399647,14.2859353 L44.0548433,14.2859353 L45.6386041,17.4653031 L33.8830838,17.8104917 L39.1920285,9.8711559 L51.7059695,9.8711559 L51.7059695,8.05437426 L28.3287678,8.05437426 L28.3287678,9.8711559 L34.3515201,9.8711559 L28.931043,17.9376664 L28.931043,19.754448 L46.5085573,19.2275813 L46.7985416,19.8271193 L51.6613565,19.8271193 Z" id="云"></path>
                    <path d="M79.0302481,20.082918 L79.0302481,16.2003519 L80.6165582,16.0623927 L80.6165582,13.7170863 L79.0302481,13.8747539 L79.0302481,0 L75.4377223,0 L75.4377223,14.1900892 L67.9260773,14.8798852 L67.9260773,17.2054832 L75.4377223,16.5353957 L75.4377223,20.082918 L79.0302481,20.082918 Z M62.9974853,20.082918 L62.9974853,6.31290152 L66.5902372,6.31290152 L66.5902372,4.35984761 L62.9974853,4.35984761 L62.9974853,2.20951553 L66.5902372,1.95305391 L66.5902372,0 L55.9035165,0.749657055 L55.9035165,2.70271096 L59.4962684,2.46597716 L59.4962684,4.35984761 L55.9035165,4.35984761 L55.9035165,6.31290152 L59.4962684,6.31290152 L59.4962684,20.082918 L62.9974853,20.082918 Z M74.6052778,6.23262971 L74.6052778,3.30428305 L67.9260773,1.38502882 L67.9260773,4.31337548 L74.6052778,6.23262971 Z M59.2431167,19.3904035 L59.2431167,7.61765854 L55.9035165,7.61765854 L55.9035165,19.3904035 L59.2431167,19.3904035 Z M67.2581573,19.3904035 L67.2581573,7.61765854 L63.918557,7.61765854 L63.918557,19.3904035 L67.2581573,19.3904035 Z M74.6052778,12.4652594 L74.6052778,9.51712664 L67.9260773,7.61765854 L67.9260773,10.5657913 L74.6052778,12.4652594 Z" id="科"></path>
                    <path d="M98.411624,20.1612903 L101.376661,17.4574438 L103.944804,20.1612903 L108.847621,20.1612903 L103.944804,15.0866798 L108.544113,10.8545722 L108.544113,6.97514029 L103.361135,6.97514029 L103.361135,3.68350105 L108.870968,3.68350105 L108.870968,1.84175053 L103.361135,1.84175053 L103.361135,0.0783723628 L99.625655,0.0783723628 L99.625655,1.84175053 L94.3492896,1.84175053 L94.3492896,3.68350105 L99.625655,3.68350105 L99.625655,6.97514029 L94.4426766,6.97514029 L94.4426766,8.81689081 L104.621859,8.81689081 L104.621859,10.0512555 L101.680169,12.735509 L99.3921875,10.364745 L94.6294506,10.3843381 L99.0886798,15.0670867 L93.5088066,20.1612903 L98.411624,20.1612903 Z M92.31936,20.1612903 L92.31936,12.6205778 L93.4136509,12.3463701 L93.4136509,10.72071 L92.31936,10.9753315 L92.31936,4.94276148 L93.5088066,4.94276148 L93.5088066,3.16041125 L92.31936,3.16041125 L92.31936,0.770886775 L88.2752413,0.770886775 L88.2752413,3.16041125 L84.825846,3.16041125 L84.825846,4.94276148 L88.2752413,4.94276148 L88.2752413,11.895886 L84.825846,12.6989229 L84.825846,14.324583 L88.2752413,13.5411323 L88.2752413,17.9088697 L85.7774034,17.9088697 L85.7774034,18.6139753 C86.3166192,18.6531478 86.7805034,18.8196311 87.169056,19.1134251 C87.5576085,19.4072191 87.7836034,19.7565075 87.8470405,20.1612903 L87.8470405,20.1612903 L92.31936,20.1612903 Z" id="技"></path>
                    <path d="M3.08808223,16.6987183 L3.08808223,16.3713186 L8.2428041,16.3713186 L8.2428041,16.6987183 L11.3546408,16.6987183 L11.3546408,5.33602524 L9.90561761,5.33602524 L10.8320423,3.66050949 L10.8320423,1.73462931 L4.58461438,1.73462931 L5.48728457,0.0783723628 L2.37544787,0.0783723628 L0,4.43086156 L3.11183671,4.43086156 L3.51566284,3.66050949 L7.72020557,3.66050949 L6.7937809,5.33602524 L4.13327929,5.33602524 L3.08808223,6.37600053 L3.08808223,5.33602524 L0,5.33602524 L0,16.6987183 L3.08808223,16.6987183 Z M24.7130418,3.54094442 L24.7130418,1.67035952 L20.0862421,1.67035952 L19.7066073,0.0783723628 L15.8390774,0.0783723628 L16.2187122,1.67035952 L11.3546408,1.67035952 L11.3546408,3.54094442 L24.7130418,3.54094442 Z M19.6585784,20.1612903 L19.6585784,11.3815588 L20.6437913,11.3815588 L20.6437913,11.6923458 L24.0451217,11.6923458 L24.0451217,4.23345884 L16.4214502,4.23345884 L15.2954925,5.22409226 L15.2954925,4.23345884 L11.8237898,4.23345884 L11.8237898,11.6923458 L15.2485776,11.6923458 L15.2485776,11.3815588 L16.2103331,11.3815588 L16.2103331,17.8303882 L14.7559712,17.8303882 L15.4596947,12.7606759 L12.2460239,12.7606759 L11.3546408,18.8598699 L14.591769,18.8598699 L14.591769,18.8404458 C14.7168754,18.905193 14.8419818,18.9764151 14.9670882,19.0541118 C15.3893224,19.3648987 15.631716,19.7339583 15.6942692,20.1612903 L15.6942692,20.1612903 L19.6585784,20.1612903 Z M20.7055215,9.77357414 L15.3621611,9.77357414 L15.3621611,6.31100207 L20.7055215,6.31100207 L20.7055215,9.77357414 Z M4.00752028,10.4660885 L2.67168019,10.4660885 L2.67168019,7.6960309 L4.00752028,7.6960309 L4.00752028,10.4660885 Z M8.01504057,10.4660885 L6.67920047,10.4660885 L6.67920047,7.6960309 L8.01504057,7.6960309 L8.01504057,10.4660885 Z M4.00752028,14.621175 L2.67168019,14.621175 L2.67168019,11.8511174 L4.00752028,11.8511174 L4.00752028,14.621175 Z M8.01504057,14.621175 L6.67920047,14.621175 L6.67920047,11.8511174 L8.01504057,11.8511174 L8.01504057,14.621175 Z M24.0451217,18.7762615 L23.2159796,12.5436318 L20.0376014,12.5436318 L20.8897753,18.7762615 L24.0451217,18.7762615 Z M0,20.1612903 L11.3546408,19.4584399 L11.3546408,17.3912327 L0,18.073411 L0,20.1612903 Z" id="鲸"></path>
                </g>
                <path d="M61.347878,41.1290323 L62.9433965,39.6226415 L55.1276685,39.6226415 C54.5881212,39.6226415 54.1256521,39.4324407 53.7402611,39.052039 C53.3548702,38.6716372 53.1621748,38.2151552 53.1621748,37.6825928 C53.1621748,37.1348144 53.3548702,36.6707243 53.7402611,36.2903226 C54.1256521,35.9099209 54.5881212,35.71972 55.1276685,35.71972 L61.347878,35.71972 L62.9433965,34.2133293 L55.1276685,34.2133293 C54.4956274,34.2133293 53.9098332,34.369294 53.3702859,34.6812234 C52.8307386,34.9931528 52.4029546,35.4115946 52.0869341,35.936549 C51.7709135,36.4615033 51.6129032,37.043518 51.6129032,37.6825928 C51.6129032,38.3064516 51.7709135,38.8808582 52.0869341,39.4058125 C52.4029546,39.9307669 52.8307386,40.3492088 53.3702859,40.6611382 C53.9098332,40.9730676 54.4956274,41.1290323 55.1276685,41.1290323 L61.347878,41.1290323 Z M74.8519761,35.71972 L76.5631118,34.2133293 L66.9668778,34.2133293 L65.255742,35.71972 L74.8519761,35.71972 Z M74.8519761,38.4129641 L76.5631118,36.9065733 L66.9668778,36.9065733 L65.255742,38.4129641 L74.8519761,38.4129641 Z M74.8519761,41.1290323 L76.5631118,39.6226415 L66.9668778,39.6226415 L65.255742,41.1290323 L74.8519761,41.1290323 Z M85.3037781,41.1290323 L85.3037781,35.71972 L88.6798026,35.71972 L90.1597037,34.1905052 L80.378482,34.1905052 L78.8754574,35.71972 L83.77763,35.71972 L83.77763,41.1290323 L85.3037781,41.1290323 Z M94.0213208,41.1290323 L94.0213208,33.8709677 L92.4720493,35.263238 L92.4720493,41.1290323 L94.0213208,41.1290323 Z M106.068641,41.1290323 L107.66416,39.6226415 L99.8484317,39.6226415 C99.3088844,39.6226415 98.8464152,39.4324407 98.4610243,39.052039 C98.0756334,38.6716372 97.8829379,38.2151552 97.8829379,37.6825928 C97.8829379,37.1348144 98.0756334,36.6707243 98.4610243,36.2903226 C98.8464152,35.9099209 99.3088844,35.71972 99.8484317,35.71972 L106.068641,35.71972 L107.66416,34.2133293 L99.8484317,34.2133293 C99.2163905,34.2133293 98.6305963,34.369294 98.091049,34.6812234 C97.5515017,34.9931528 97.1237178,35.4115946 96.8076972,35.936549 C96.4916767,36.4615033 96.3336664,37.043518 96.3336664,37.6825928 C96.3336664,38.3064516 96.4916767,38.8808582 96.8076972,39.4058125 C97.1237178,39.9307669 97.5515017,40.3492088 98.091049,40.6611382 C98.6305963,40.9730676 99.2163905,41.1290323 99.8484317,41.1290323 L106.068641,41.1290323 Z M121.283875,41.1290323 L121.283875,39.6226415 L111.525777,39.6226415 L111.525777,33.8709677 L109.976505,35.3545344 L109.976505,40.1475959 C109.976505,40.4214851 110.076707,40.6535301 110.27711,40.843731 C110.477513,41.0339318 110.716456,41.1290323 110.993937,41.1290323 L121.283875,41.1290323 Z M132.059405,41.1290323 C132.845603,41.1290323 133.512329,40.858947 134.059584,40.3187766 C134.606839,39.7786062 134.880467,39.1281193 134.880467,38.3673159 L134.880467,36.9978698 C134.880467,36.2370663 134.606839,35.5827754 134.059584,35.034997 C133.512329,34.4872185 132.845603,34.2133293 132.059405,34.2133293 L126.394159,34.2133293 C125.623377,34.2133293 124.964358,34.4872185 124.417103,35.034997 C123.869848,35.5827754 123.596221,36.2370663 123.596221,36.9978698 L123.596221,38.3673159 C123.596221,39.1281193 123.869848,39.7786062 124.417103,40.3187766 C124.964358,40.858947 125.623377,41.1290323 126.394159,41.1290323 L132.059405,41.1290323 Z M132.059405,39.6226415 L126.394159,39.6226415 C126.039599,39.6226415 125.738994,39.500913 125.492344,39.2574559 C125.245694,39.0139988 125.122369,38.7172855 125.122369,38.3673159 L125.122369,36.9978698 C125.122369,36.6479002 125.245694,36.3511869 125.492344,36.1077298 C125.738994,35.8642727 126.039599,35.7425441 126.394159,35.7425441 L132.059405,35.7425441 C132.413965,35.7425441 132.718424,35.8642727 132.972782,36.1077298 C133.22714,36.3511869 133.354319,36.6479002 133.354319,36.9978698 L133.354319,38.3673159 C133.354319,38.7172855 133.22714,39.0139988 132.972782,39.2574559 C132.718424,39.500913 132.413965,39.6226415 132.059405,39.6226415 Z M145.702244,41.1290323 C146.473026,41.1290323 147.135898,40.855143 147.690861,40.3073646 C148.245824,39.7595861 148.523306,39.1052952 148.523306,38.3444918 L148.523306,34.1905052 L146.997158,34.1905052 L146.997158,38.3444918 C146.997158,38.6944614 146.869979,38.9911747 146.615621,39.2346318 C146.361263,39.4780889 146.056804,39.5998174 145.702244,39.5998174 L139.990751,39.5998174 C139.636191,39.5998174 139.335586,39.4780889 139.088936,39.2346318 C138.842286,38.9911747 138.718961,38.6944614 138.718961,38.3444918 L138.718961,34.1905052 L137.192812,34.1905052 L137.192812,38.3444918 C137.192812,39.1052952 137.46644,39.7595861 138.013695,40.3073646 C138.56095,40.855143 139.219969,41.1290323 139.990751,41.1290323 L145.702244,41.1290323 Z M158.535762,41.1290323 C159.167803,41.1290323 159.753597,40.9768716 160.293145,40.6725502 C160.832692,40.3682288 161.268184,39.953591 161.59962,39.4286366 C161.931056,38.9036823 162.096774,38.3292757 162.096774,37.7054169 C162.096774,37.0663421 161.93491,36.4805234 161.611182,35.947961 C161.287453,35.4153987 160.828838,34.9931528 160.235336,34.6812234 C159.641834,34.369294 158.959692,34.2133293 158.18891,34.2133293 L158.18891,34.2133293 L152.315552,34.2133293 L150.835651,35.71972 L158.558885,35.71972 C159.113848,35.71972 159.587879,35.9137249 159.980978,36.3017346 C160.374077,36.6897444 160.570626,37.1576385 160.570626,37.7054169 C160.570626,38.2379793 160.377931,38.6906573 159.99254,39.063451 C159.607149,39.4362447 159.14468,39.6226415 158.605132,39.6226415 L158.605132,39.6226415 L152.454293,39.6226415 L152.454293,36.9065733 L150.835651,38.4129641 L150.835651,40.626902 C150.835651,40.7638466 150.881898,40.8817712 150.974392,40.9806756 C151.066886,41.07958 151.182503,41.1290323 151.321244,41.1290323 L151.321244,41.1290323 L158.535762,41.1290323 Z" id="CetiCloud" fill="#393C40" fill-rule="nonzero"></path>
                <path d="M24.3431046,0.598603333 L42.0225203,10.8645853 C42.2694438,11.0079675 42.5755438,11.1918386 42.9408201,11.4161989 C43.4701053,11.7413383 43.6356376,12.4339768 43.3105284,12.9632805 C43.2344109,13.0872059 43.1349814,13.1951927 43.0177473,13.2812598 L43.0177473,13.2812598 L43.0177473,13.2812598 L42.2669724,13.7815495 L41.7777487,14.1058966 L41.2975593,14.4229003 L40.5942143,14.8846369 L40.1366105,15.1832821 L39.4671438,15.6174808 L39.0321255,15.8977674 L38.3965371,16.3044285 L37.7812755,16.6945668 L37.3823938,16.9454798 L36.8010103,17.3080805 L36.4247139,17.5406351 L36.0574516,17.7658463 L35.6992234,17.9837142 L35.3500292,18.1942387 L35.0098691,18.3974198 L34.6787431,18.5932576 L34.356651,18.7817521 L34.043593,18.9629032 L33.739569,19.136711 C33.6896512,19.165067 33.6401098,19.1931171 33.5909448,19.2208612 L33.3004717,19.383654 L33.0190327,19.5391035 L32.7466276,19.6872097 L32.4832564,19.8279726 C32.440114,19.8508212 32.3973481,19.8733637 32.3549585,19.8956003 L32.1051383,20.0253483 L31.8643519,20.147753 L31.6325994,20.2628144 L31.4098808,20.3705325 C31.3735139,20.3878736 31.3375233,20.4049087 31.3019092,20.4216378 L31.0927414,20.5183411 C31.0245245,20.5493516 30.9578131,20.5791383 30.8926075,20.607701 L30.7015074,20.6897177 C30.6082158,20.7288903 30.5183118,20.7653091 30.4317956,20.7989742 L30.26328,20.8626328 C29.6892846,21.0725872 29.281285,21.1476097 29.0392787,21.0877013 C27.6951568,20.7549656 26.7987306,19.7750243 26.0689387,18.6037241 L25.965786,18.435143 C25.9317594,18.3785481 25.8980802,18.3215686 25.8647183,18.2642536 L25.7655535,18.0913514 L25.6681096,17.9167317 L25.5722044,17.7406898 L25.4776559,17.5635211 L25.3379786,17.2963011 L25.2003295,17.028207 L24.8419099,16.3232464 L24.688514,16.0259349 L24.5339577,15.733601 L24.4298352,15.5421912 C23.8716132,14.529714 23.2632056,13.6573316 22.4242569,13.2175583 C20.2640788,12.0852024 17.2748532,11.6305435 13.45658,11.8535819 L13.2649755,11.8652989 C12.824233,11.893448 12.4896293,12.2756168 12.5176172,12.7188968 C12.5263896,12.8578349 12.5708713,12.9921034 12.6467108,13.1085663 L12.8948973,13.4907407 L13.3762287,14.2382693 L13.7240659,14.7841982 L14.0606219,15.317512 L14.2787252,15.6660461 L14.6998902,16.3462942 L14.9029519,16.6780082 L15.1981435,17.1650667 L15.3886705,17.4827639 L15.5741837,17.7948545 L15.754683,18.1013383 L16.0160309,18.5505515 L16.1839955,18.8430185 L16.3469463,19.1298789 L16.5048832,19.4111326 L16.6578062,19.6867795 L16.8057153,19.9568198 C16.829949,20.0013592 16.8539738,20.0456651 16.8777897,20.0897374 L17.018178,20.3513675 L17.1535525,20.607391 L17.2839131,20.8578078 L17.4092598,21.1026179 C17.4297331,21.1429523 17.4499975,21.1830531 17.470053,21.2229204 L17.5878789,21.4593204 C17.6070988,21.4982532 17.6261097,21.5369523 17.6449117,21.5754179 L17.7552168,21.8034078 L17.8605081,22.0257911 L17.9607855,22.2425676 L18.056049,22.4537374 C18.0715084,22.4884652 18.0867589,22.5229593 18.1018005,22.5572198 L18.1895432,22.7599796 L18.2722721,22.9571326 L18.3499871,23.148679 C18.3875911,23.2430505 18.4233149,23.3353195 18.4571585,23.425486 L18.5223388,23.6030156 C18.5327844,23.6321366 18.543021,23.661024 18.5530488,23.6896778 L18.6107083,23.8587974 C18.6290924,23.9142361 18.646641,23.9687404 18.6633539,24.0223102 L18.7109856,24.1802163 L18.7536035,24.3325157 C18.7803442,24.4321798 18.8037422,24.528106 18.8237977,24.6202944 L18.851374,24.7557737 C18.8931562,24.9769003 18.9140473,25.1746656 18.9140473,25.3490696 C18.9140473,25.6940887 18.8322885,26.1294319 18.6687707,26.6550995 L18.6172626,26.8155095 L18.560849,26.9813389 L18.4995298,27.1525878 L18.4333052,27.3292562 L18.3621749,27.511344 C18.3499111,27.5421436 18.3374429,27.573169 18.3247702,27.6044202 L18.2462817,27.7946372 C18.2327915,27.8267917 18.2190969,27.8591719 18.2051979,27.891778 L18.1193511,28.0901242 C18.0899179,28.1571428 18.0596671,28.2250647 18.0285987,28.2938898 L17.9329408,28.5030749 L17.8323774,28.7176795 L17.7269085,28.9377035 C17.7089215,28.9748257 17.6907302,29.0121738 17.6723344,29.0497478 L17.5595072,29.2779009 L17.4417744,29.5114736 L17.3191361,29.7504657 L17.1915922,29.9948772 L17.0591428,30.2447082 L16.9217879,30.4999587 L16.7065577,30.8929958 L16.5569389,31.1617949 L16.4024147,31.4360135 L16.2429848,31.7156515 L16.0786495,32.000709 L15.9094086,32.2911859 L15.7352622,32.5870823 L15.5562103,32.8883981 L15.3722528,33.1951334 L15.0871187,33.6653978 L14.8908974,33.9856817 L14.5873676,34.4762691 L14.2728003,34.9790502 L14.0569569,35.3210119 L13.8362079,35.6683931 L13.4958866,36.1996264 L13.1445278,36.7430535 L12.7821316,37.2986743 L12.6576284,37.4884957 C12.414211,37.8591084 12.5156033,38.3580142 12.8840944,38.602833 C12.9998846,38.6797619 13.1335872,38.7250595 13.2720573,38.7342725 L13.5865762,38.7542448 L13.8959998,38.7719707 L14.200328,38.78745 L14.4995608,38.8006829 L14.7936983,38.8116692 C14.8422966,38.813313 14.8906826,38.8148633 14.9388563,38.8163199 L15.2253508,38.8239364 L15.5067499,38.8293065 L15.7830537,38.83243 L16.0542621,38.833307 L16.3203751,38.8319374 C16.3643027,38.831522 16.4080179,38.8310129 16.4515209,38.8304102 L16.7099909,38.825671 L16.9633655,38.8186852 C17.0469745,38.8159821 17.1297343,38.8129047 17.2116448,38.8094528 L17.4548287,38.797974 L17.6929173,38.7842487 C17.771431,38.7792991 17.8490954,38.7739752 17.9259105,38.7682768 L18.1538084,38.7500584 C18.1913668,38.7468348 18.2287128,38.7435176 18.2658466,38.7401068 L18.4861014,38.7185186 C18.5223859,38.7147334 18.5584582,38.7108546 18.5943181,38.7068821 L18.8069299,38.6819242 L19.0144463,38.6547198 C19.0486078,38.6499985 19.0825569,38.6451836 19.1162938,38.6402751 L19.3161672,38.6097009 C19.5792681,38.5674376 19.8287815,38.5191836 20.0647072,38.4649389 L20.2391039,38.4231322 C21.2129145,38.179862 21.9412989,37.8283847 22.4242569,37.3687003 C22.7206099,37.0866284 23.0207793,36.7380323 23.3241916,36.3460913 L23.4544223,36.1755304 L23.5850401,36.0000674 L23.7160348,35.8201079 L23.8473965,35.6360572 L23.9791152,35.4483209 L24.1111807,35.2573044 L24.3099075,34.9655163 L24.5759971,34.5687692 L25.3137253,33.4574506 L25.5162885,33.1555917 L25.6516221,32.9559965 L25.8550346,32.6600831 L25.990903,32.4657186 L26.1269678,32.274156 L26.2632189,32.0858007 L26.3996463,31.9010583 C27.3097277,30.682386 28.230893,29.7316007 29.1497614,29.5893307 C29.4986025,29.5353191 30.1074369,29.6847035 30.9762645,30.0374842 L31.173617,30.1192279 L31.379529,30.2076679 C31.4145609,30.2229659 31.4499495,30.2385429 31.4856948,30.2543989 L31.7044459,30.3528831 L31.9317565,30.4580635 L32.1676265,30.56994 L32.412056,30.6885127 C32.4535075,30.7088329 32.4953157,30.729432 32.5374805,30.7503102 L32.7947492,30.8789271 L33.0605773,31.0142403 L33.3349648,31.1562496 L33.6179118,31.304955 L33.9094183,31.4603567 L34.2094842,31.6224545 L34.5181095,31.7912485 L34.8352943,31.9667386 L35.1610385,32.1489249 L35.4953422,32.3378074 L35.8382053,32.5333861 L36.1896279,32.7356609 L36.7328107,33.0516284 L37.1056319,33.2706437 L37.4870126,33.4963551 L38.0751325,33.8474775 L38.4779118,34.0899294 L39.0981296,34.4661625 L39.7376062,34.8574619 L40.1746233,35.1266984 L40.8461978,35.5431085 L41.5370311,35.974585 L42.2471232,36.4211278 L42.976474,36.8827371 C43.4408482,37.1625765 43.5904432,37.7658809 43.3106037,38.2302551 C43.2289987,38.3656731 43.1158933,38.4793775 42.9809277,38.5617286 C42.5886016,38.8009846 42.2691325,38.9922133 42.0225203,39.1354147 L24.3431046,49.4013967 C22.9686029,50.1995344 21.275147,50.1995344 19.9006453,49.4013967 L2.22122964,39.1354147 C0.846727957,38.3372769 0,36.8622575 0,35.2659819 L0,14.7340181 C0,13.1377425 0.846727957,11.6627231 2.22122964,10.8645853 L19.9006453,0.598603333 C21.275147,-0.199534444 22.9686029,-0.199534444 24.3431046,0.598603333 Z" id="蒙版" fill="#FFFFFF"></path>
            </g>
        </g>
    </g>
</svg>