<svg width="250" height="120" viewBox="0 0 250 120" fill="none" xmlns="http://www.w3.org/2000/svg">
<rect width="250" height="120" fill="white"/>
<path fill-rule="evenodd" clip-rule="evenodd" d="M61.1 46.5998C50 46.5998 41 51.1998 41 56.7998C41 62.3998 50 66.9998 61.1 66.9998C72.2 66.9998 81.2 62.3998 81.2 56.7998C81.1 51.1998 72.1 46.5998 61.1 46.5998ZM59.3 63.7998C52.2 63.7998 46.4 60.6998 46.4 56.7998C46.4 52.8998 52.2 49.7998 59.3 49.7998C66.4 49.7998 72.2 52.8998 72.2 56.7998C72.2 60.6998 66.4 63.7998 59.3 63.7998ZM104.7 46.2998C101.4 46.2998 98.2 46.6998 95.5 47.3998V50.6998C97.6 49.8998 100.2 49.3998 103 49.3998C110.1 49.3998 115.9 52.4998 115.9 56.3998C115.9 60.2998 110.1 63.3998 103 63.3998C98.1 63.3998 93.9 61.8998 91.7 59.7998V47.1998H84.4V73.9998H91.7V64.1998C95.2 65.6998 99.8 66.6998 104.8 66.6998C115.9 66.6998 124.9 62.0998 124.9 56.4998C124.8 50.8998 115.8 46.2998 104.7 46.2998V46.2998ZM148.7 46.2998C145.4 46.2998 142.2 46.6998 139.5 47.3998V50.6998C141.6 49.8998 144.2 49.3998 147 49.3998C154.1 49.3998 159.9 52.4998 159.9 56.3998C159.9 60.2998 154.1 63.3998 147 63.3998C142.1 63.3998 137.9 61.8998 135.7 59.7998V47.1998H128.4V73.9998H135.7V64.1998C139.2 65.6998 143.8 66.6998 148.8 66.6998C159.9 66.6998 168.9 62.0998 168.9 56.4998C168.7 50.8998 159.7 46.2998 148.7 46.2998V46.2998ZM191.3 46.2998C180.2 46.2998 171.2 50.8998 171.2 56.4998C171.2 62.0998 180.2 66.6998 191.3 66.6998C202.4 66.6998 211.4 62.0998 211.4 56.4998C211.4 50.8998 202.4 46.2998 191.3 46.2998ZM189.6 63.4998C182.5 63.4998 176.7 60.3998 176.7 56.4998C176.7 52.5998 182.5 49.4998 189.6 49.4998C196.7 49.4998 202.5 52.5998 202.5 56.4998C202.5 60.3998 196.7 63.4998 189.6 63.4998Z" fill="#333333"/>
</svg>
