<svg width="250" height="120" viewBox="0 0 250 120" fill="none" xmlns="http://www.w3.org/2000/svg">
<rect width="250" height="120" fill="white"/>
<path d="M49.4334 46.8001C48.0334 47.3001 45.3333 48.7001 45.3333 48.7001C44.0333 47.3001 42.3333 46.1001 40.6333 45.2001C38.3333 44.2001 35.7333 43.5001 33.1333 43.4001C32.8333 43.4001 33.1333 45.9001 33.1333 46.8001C33.1333 47.8001 33.4334 53.4001 33.4334 54.1001C33.4334 55.1001 33.8334 55.0001 34.7334 54.9001C36.0334 54.6001 40.9333 53.9001 40.8333 54.1001C40.4333 54.5001 40.7333 57.7001 41.1333 59.9001C41.4333 61.8001 42.0334 65.0001 42.0334 65.0001C41.2334 65.4001 40.4334 65.8001 39.7334 66.0001C38.9334 66.4001 38.0334 66.6001 37.2334 66.9001C36.9334 66.9001 36.8334 67.0001 36.9334 67.3001C37.7334 69.4001 39.1334 71.1001 40.9334 72.1001C42.3334 72.6001 43.9334 73.1001 45.4334 73.4001C47.5334 75.6001 49.8334 77.5001 52.4334 79.2001C56.2334 81.3001 60.4334 82.3001 64.7334 82.4001C68.1334 82.4001 71.3333 81.8001 74.3333 80.3001C76.2333 79.1001 77.9334 77.5001 79.2334 75.5001C81.5334 71.2001 79.8333 63.5001 79.1333 61.3001C77.5333 57.7001 75.1333 54.6001 72.1333 52.0001C68.0333 48.5001 66.5334 48.1001 66.0334 47.2001C64.8334 44.6001 63.2333 42.3001 61.1333 40.3001C59.2333 38.5001 56.6333 37.3001 53.8333 37.1001C53.7333 37.2001 54.2334 43.2001 53.9334 45.3001C53.6334 45.4001 50.8334 46.2001 49.4334 46.8001V46.8001Z" fill="#333333"/>
<path d="M75.7335 56.6003C65.3335 55.8003 61.6335 58.1003 57.9335 62.2003C53.3335 67.4003 53.2335 75.0003 53.7335 79.7003C53.2335 79.4003 52.8335 79.2003 52.3335 78.9003C50.6335 77.9003 49.1335 76.6003 47.7335 75.3003C45.5335 66.0003 49.0335 58.9003 52.0335 55.9003C52.0335 55.9003 55.1334 51.9003 62.1334 50.5003C62.9334 50.4003 65.2335 51.7003 65.9335 52.0003C66.4335 52.3003 66.2335 49.8003 66.4335 49.8003H69.0335C69.8335 50.3003 70.7335 51.1003 71.7335 52.0003C73.1335 53.6003 74.5335 55.0003 75.7335 56.6003V56.6003Z" fill="white"/>
<path d="M54.3333 37.6C56.6333 38.1 58.8334 39.2 60.5334 40.7C62.3334 42.4 63.7333 44.5 64.8333 46.7C64.9333 47 65.1334 47.2 65.2334 47.5C65.7334 48.1 66.4334 48.7 67.0334 49.1C68.6334 50.1 70.0334 51.3 71.4334 52.5C74.2334 55 76.6333 58.1 78.1333 61.6C78.9333 63.9 80.4334 71.4 78.4334 75.3C77.2334 77.1 75.7334 78.7 73.9334 79.7C71.1334 81.1 67.8334 81.8 64.7334 81.6C60.6334 81.5 56.4333 80.4 52.8333 78.5C50.3333 76.8 48.0334 74.9 45.9334 72.8L45.8333 72.7H45.5334C43.9334 72.4 42.5333 72.1 41.1333 71.5C39.5333 70.6 38.3333 69.2 37.6333 67.6C37.9333 67.5 38.4334 67.3 38.9334 67.1L39.8333 66.8C40.6333 66.4 41.4333 66.2 42.1333 65.6L42.5334 65.3L42.4334 64.8C42.4334 64.8 41.8334 61.7 41.5334 59.7C41.1334 58 41.0333 56.2 41.1333 54.4L41.4334 54.1L41.3333 53.7C41.2333 53.4 40.9334 53.3 40.7334 53.3C40.2334 53.3 38.0333 53.7 35.6333 53.9L34.6333 54H34.1333V53.7C34.1333 53.4 34.1334 52.1 34.0334 50.7C33.9334 48.9 33.9334 46.9 33.9334 46.3C33.9334 45.8 33.9333 45.4 33.8333 44.9C33.7333 44.4 33.8334 44 33.7334 43.6C36.0334 43.9 38.2333 44.4 40.3333 45.4C42.0333 46.3 43.4334 47.5 44.7334 48.8L45.1333 49.2L45.5334 49.1C45.5334 49.1 48.2333 47.7 49.6333 47.2C50.2333 46.9 51.3334 46.6 52.2334 46.3C53.0334 46.2 53.6334 45.9 54.4334 45.5L54.5334 45.4V45.1C54.6334 43 54.6334 41 54.5334 39C54.4334 38.6 54.4333 38.1 54.3333 37.6ZM53.9334 37H53.8333C53.7333 37.1 54.2334 43.1 53.9334 45.2C53.8334 45.3 50.9334 46.2 49.4334 46.8C48.0334 47.3 45.3333 48.9 45.3333 48.9C44.0333 47.5 42.3333 46.3 40.6333 45.4C38.3333 44.4 35.7333 43.7 33.1333 43.6C32.8333 43.6 33.1333 46.1 33.1333 47C33.1333 48 33.4334 53.6 33.4334 54.3C33.4334 55 33.7334 55.2 34.0334 55.2H34.6333C35.8333 55.1 39.9333 54.3 40.6333 54.3H40.7334C40.3334 54.7 40.6334 57.9 41.0334 60.1C41.3334 62 41.9334 65.2 41.9334 65.2C41.1334 65.6 40.3333 66 39.6333 66.2C38.8333 66.6 37.9333 66.8 37.1333 67.1C36.8333 67.1 36.7333 67.2 36.8333 67.5C37.6333 69.6 39.0333 71.3 40.8333 72.3C42.2333 72.8 43.8333 73.3 45.3333 73.6C47.4333 75.8 49.7333 77.7 52.3333 79.4C56.1333 81.5 60.3333 82.5 64.6333 82.6C68.0333 82.6 71.2334 82 74.2334 80.5C76.1334 79.3 77.8333 77.7 79.1333 75.7C81.4333 71.4 79.7334 63.7 79.0334 61.5C77.4334 57.9 75.0334 54.7001 72.0334 52.1001C67.9334 48.6001 66.4334 48.3 65.9334 47.4C64.7334 44.8 63.1334 42.5 61.0334 40.5C59.0334 38.5 56.5334 37.3 53.9334 37Z" fill="#333333"/>
<path d="M64.7335 72.8003H65.0334C65.6334 72.8003 66.2335 73.3003 66.2335 74.0003V78.1003C66.2335 78.7003 65.7334 79.3003 65.0334 79.3003H64.7335C64.1335 79.3003 63.5334 78.8003 63.5334 78.1003V74.0003C63.5334 73.4003 64.0335 72.8003 64.7335 72.8003Z" fill="white"/>
<path d="M76.4335 70.1001L74.4335 73.2001L76.4335 75.0001" stroke="white" stroke-linecap="round" stroke-linejoin="round"/>
<path fill-rule="evenodd" clip-rule="evenodd" d="M82.3743 55.2522C82.5665 55.0539 82.883 55.0488 83.0814 55.241C86.4321 58.487 86.7335 62.064 86.7335 65.4001C86.7335 65.6762 86.5096 65.9001 86.2335 65.9001C85.9573 65.9001 85.7335 65.6762 85.7335 65.4001C85.7335 62.1362 85.4348 58.9132 82.3856 55.9592C82.1872 55.7671 82.1822 55.4505 82.3743 55.2522ZM81.0799 59.4466C81.2752 59.2513 81.5918 59.2513 81.787 59.4466C83.219 60.8786 83.7537 62.9559 83.3227 65.0031C83.2658 65.2733 83.0006 65.4462 82.7304 65.3894C82.4602 65.3325 82.2873 65.0673 82.3442 64.7971C82.7132 63.0443 82.2479 61.3216 81.0799 60.1537C80.8847 59.9584 80.8847 59.6418 81.0799 59.4466Z" fill="#333333"/>
<path fill-rule="evenodd" clip-rule="evenodd" d="M205.079 46.0648C205.32 46.2007 205.405 46.5057 205.269 46.7461L203.09 50.6001H216.233C216.51 50.6001 216.733 50.8239 216.733 51.1001V55.4001C216.733 55.6762 216.51 55.9001 216.233 55.9001C215.957 55.9001 215.733 55.6762 215.733 55.4001V51.6001H202.242C202.236 51.6002 202.23 51.6002 202.224 51.6001H189.933V55.4001C189.933 55.6762 189.71 55.9001 189.433 55.9001C189.157 55.9001 188.933 55.6762 188.933 55.4001V51.1001C188.933 50.8239 189.157 50.6001 189.433 50.6001H201.942L204.398 46.2541C204.534 46.0137 204.839 45.9289 205.079 46.0648ZM170.079 46.2644C170.319 46.3999 170.405 46.7048 170.269 46.9454L167.648 51.6001H185.133C185.41 51.6001 185.633 51.8239 185.633 52.1001C185.633 52.3762 185.41 52.6001 185.133 52.6001H167.085L163.133 59.6174V73.6001C163.133 73.8762 162.91 74.1001 162.633 74.1001C162.357 74.1001 162.133 73.8762 162.133 73.6001V61.3933L158.669 67.5454C158.534 67.786 158.229 67.8712 157.988 67.7358C157.747 67.6003 157.662 67.2954 157.798 67.0547L165.937 52.6001H158.233C157.957 52.6001 157.733 52.3762 157.733 52.1001C157.733 51.8239 157.957 51.6001 158.233 51.6001H166.5L169.398 46.4547C169.533 46.2141 169.838 46.1289 170.079 46.2644ZM133.692 46.2719C133.928 46.4146 134.004 46.7219 133.862 46.9584L132.328 49.5001H150.433C150.63 49.5001 150.809 49.6156 150.89 49.7953C150.97 49.9749 150.938 50.1851 150.807 50.3323L146.747 54.9001H151.733C152.01 54.9001 152.233 55.1239 152.233 55.4001V68.4001C152.233 68.6762 152.01 68.9001 151.733 68.9001H129.933C129.657 68.9001 129.433 68.6762 129.433 68.4001V55.4001C129.433 55.1239 129.657 54.9001 129.933 54.9001H145.409L149.32 50.5001H131.724L130.362 52.7584C130.219 52.9948 129.912 53.0709 129.675 52.9282C129.439 52.7855 129.363 52.4782 129.505 52.2418L130.967 49.8195C130.988 49.7652 131.018 49.7155 131.056 49.6723L133.005 46.4417C133.148 46.2053 133.455 46.1293 133.692 46.2719ZM145.631 55.9001H141.333V61.2H151.233V55.9001H145.636C145.634 55.9001 145.632 55.9001 145.631 55.9001ZM151.233 62.2H141.333V67.9001H151.233V62.2ZM140.333 67.9001V62.2H130.433V67.9001H140.333ZM130.433 61.2H140.333V55.9001H130.433V61.2ZM110.633 46.2C110.91 46.2 111.133 46.4239 111.133 46.7V70.9817C111.241 72.5112 110.177 73.9751 108.572 74.0986C108.559 74.0996 108.546 74.1001 108.533 74.1001H103.133C102.857 74.1001 102.633 73.8762 102.633 73.6001C102.633 73.3239 102.857 73.1001 103.133 73.1001H108.513C109.491 73.0144 110.216 72.0953 110.135 71.0384C110.134 71.0257 110.133 71.0129 110.133 71.0001V46.7C110.133 46.4239 110.357 46.2 110.633 46.2ZM102.325 53.7381C102.58 53.8438 102.701 54.1363 102.595 54.3914L96.7953 68.3914C96.6896 68.6465 96.3971 68.7677 96.142 68.662C95.8869 68.5563 95.7658 68.2638 95.8715 68.0087L101.671 54.0087C101.777 53.7536 102.07 53.6324 102.325 53.7381ZM117.742 53.7381C117.997 53.6324 118.29 53.7536 118.395 54.0087L124.195 68.0087C124.301 68.2638 124.18 68.5563 123.925 68.662C123.67 68.7677 123.377 68.6465 123.271 68.3914L117.471 54.3914C117.366 54.1363 117.487 53.8438 117.742 53.7381ZM175.433 54.9001C175.71 54.9001 175.933 55.1239 175.933 55.4001V61.2H183.833C184.11 61.2 184.333 61.4239 184.333 61.7C184.333 61.9762 184.11 62.2 183.833 62.2H175.933V73.1001H185.133C185.41 73.1001 185.633 73.3239 185.633 73.6001C185.633 73.8762 185.41 74.1001 185.133 74.1001H165.733C165.457 74.1001 165.233 73.8762 165.233 73.6001C165.233 73.3239 165.457 73.1001 165.733 73.1001H174.933V62.2H166.833C166.557 62.2 166.333 61.9762 166.333 61.7C166.333 61.4239 166.557 61.2 166.833 61.2H174.933V55.4001C174.933 55.1239 175.157 54.9001 175.433 54.9001ZM201.666 57.0001L190.284 63.567C190.044 63.705 189.962 64.0108 190.1 64.2499C190.238 64.4891 190.544 64.5712 190.783 64.4332L203.667 57.0001H203.933V60.1109L190.284 67.9667C190.045 68.1044 189.962 68.4101 190.1 68.6495C190.238 68.8888 190.543 68.9711 190.783 68.8334L203.933 61.2647V64.7279L190.284 72.5665C190.045 72.704 189.962 73.0096 190.1 73.2491C190.237 73.4886 190.543 73.5712 190.782 73.4337L203.933 65.8811V66.8903C203.933 66.8965 203.933 66.9027 203.933 66.9089V70.7C203.933 70.7119 203.934 70.7238 203.935 70.7357C204.016 71.8774 203.208 72.8131 202.213 72.9001H196.533C196.257 72.9001 196.033 73.1239 196.033 73.4001C196.033 73.6762 196.257 73.9001 196.533 73.9001H202.233C202.246 73.9001 202.259 73.8996 202.272 73.8986C203.862 73.7762 205.041 72.3267 204.933 70.683V67.7589L215.987 74.0349C216.227 74.1712 216.532 74.0871 216.668 73.8469C216.805 73.6068 216.72 73.3016 216.48 73.1653L204.933 66.609V65.3068L215.682 59.1336C215.922 58.9961 216.005 58.6905 215.867 58.451C215.729 58.2116 215.424 58.1289 215.184 58.2665L204.933 64.1536V60.4087C204.934 60.4026 204.934 60.3965 204.933 60.3904V57.0001H213.133C213.41 57.0001 213.633 56.7762 213.633 56.5001C213.633 56.2239 213.41 56.0001 213.133 56.0001H203.542C203.536 56 203.53 56 203.524 56.0001H192.933C192.657 56.0001 192.433 56.2239 192.433 56.5001C192.433 56.7762 192.657 57.0001 192.933 57.0001H201.666ZM126.333 73.6001C126.333 73.3239 126.557 73.1001 126.833 73.1001H154.833C155.11 73.1001 155.333 73.3239 155.333 73.6001C155.333 73.8762 155.11 74.1001 154.833 74.1001H126.833C126.557 74.1001 126.333 73.8762 126.333 73.6001Z" fill="#333333"/>
</svg>
