<svg width="250" height="120" viewBox="0 0 250 120" fill="none" xmlns="http://www.w3.org/2000/svg">
<rect width="250" height="120" fill="white"/>
<path fill-rule="evenodd" clip-rule="evenodd" d="M39 51C39 41.0589 47.0589 33 57 33C66.9411 33 75 41.0589 75 51V65C75 74.9411 66.9411 83 57 83C47.0589 83 39 74.9411 39 65V51ZM57 43C52.5817 43 49 46.5817 49 51V65C49 69.4183 52.5817 73 57 73C61.4183 73 65 69.4183 65 65V51C65 46.5817 61.4183 43 57 43ZM74.5001 86.1998C76.2674 86.1998 77.7001 84.7671 77.7001 82.9998C77.7001 81.2325 76.2674 79.7998 74.5001 79.7998C72.7327 79.7998 71.3 81.2325 71.3 82.9998C71.3 84.7671 72.7327 86.1998 74.5001 86.1998ZM172.1 56.7999L174.6 56.4999C174.8 56.4999 174.9 56.6999 175 56.8999V58.8999C175 59.0999 174.8 59.1999 174.7 59.1999L172.2 59.4999V65.7999C172.2 65.9999 172 66.0999 171.9 66.0999H169.8C169.6 66.0999 169.5 65.8999 169.5 65.7999V59.6999L161.3 60.5999C161 60.6999 160.9 60.4999 160.9 60.2999V58.2999C160.9 58.0999 161.1 57.9999 161.2 57.9999L169.4 57.0999V39.6999C169.4 39.4999 169.6 39.3999 169.7 39.3999H171.8C172 39.3999 172.1 39.5999 172.1 39.6999V56.7999ZM112.6 53.1C108.7 52.5 105.4 51.5 102.9 50.3C106.1 48 107.8 45.8 108.5 44.7H111.9C112 44.7 112.2 44.6 112.2 44.4V42.4C112.2 42.3 112.1 42.1 111.9 42.1H101.7V39.8C101.7 39.7 101.6 39.5 101.4 39.5H99.3C99.2 39.5 99 39.6 99 39.8V42.1H89.1C89 42.1 88.8 42.2 88.8 42.3L88.3 44.3C88.2 44.5 88.4 44.7 88.6 44.7H92.1C92.8 45.8 94.5 48.1 97.7 50.3C95.2 51.5 92 52.6 88 53.1C87.8 53.1 87.7 53.3 87.8 53.5L88.5 55.5C88.6 55.6 88.7 55.7 88.9 55.7C93.8 54.9 97.6 53.5 100.5 52C103.4 53.6 107.2 55 112.1 55.7C112.2 55.7 112.4 55.6 112.5 55.5L113.2 53.5C113.085 53.4236 113.015 53.3472 112.954 53.282C112.856 53.1764 112.785 53.1 112.6 53.1ZM98 47.2C96.9 46.3 96 45.4 95.4 44.7H105.2C104.2 45.8 102.7 47.4 100.3 48.9C100.096 48.7416 99.9029 48.5883 99.7174 48.4413L99.7172 48.4412C99.0831 47.9386 98.5415 47.5095 98 47.2ZM199.2 50.2001V46.0001H205C205.1 46.0001 205.3 45.9001 205.3 45.7001V43.7001C205.3 43.6001 205.2 43.4001 205 43.4001H199.2V39.9001C199.2 39.8001 199.1 39.6001 198.9 39.6001H196.8C196.7 39.6001 196.5 39.7001 196.5 39.9001V43.4001H190.9C190.8 43.4001 190.6 43.5001 190.6 43.6001L190 45.6001C189.9 45.8001 190.1 46.0001 190.3 46.0001H196.4V50.2001H191.5C191.4 50.2001 191.2 50.3001 191.2 50.4001L190.6 52.5001C190.5 52.7001 190.7 52.9001 190.9 52.9001H201.6C201 54.7001 199.8 57.1001 197.5 59.2001C196.1 57.9001 195.1 56.5001 194.4 55.2001C194.376 55.1765 194.353 55.1474 194.328 55.1166C194.247 55.0169 194.153 54.9001 194 54.9001H191.8C191.6 54.9001 191.4 55.1001 191.5 55.3001C191.7 55.8001 192 56.4001 192.3 56.9001C193 58.1001 194 59.5001 195.3 60.8001C193.6 61.9001 191.4 63.0001 188.7 63.7001C188.5 63.8001 188.4 63.9001 188.5 64.1001C188.8 64.6001 189.3 65.5001 189.5 65.9001C189.6 66.0001 189.7 66.1001 189.9 66.0001C193 65.2001 195.5 63.9001 197.4 62.5001C199.3 63.9001 201.8 65.2001 204.9 66.0001C205 66.1001 205.2 66.0001 205.3 65.9001L206.3 64.1001C206.4 64.0001 206.3 63.7001 206.1 63.7001C203.4 63.0001 201.2 62.0001 199.5 60.9001C202.5 57.9001 203.9 54.6001 204.4 52.4001C204.7 51.3001 203.8 50.2001 202.7 50.2001H199.2ZM188.9 52.5999V54.8999C188.9 54.9999 188.8 55.1999 188.6 55.1999L185.7 56.2999V64.0999C185.7 65.1999 184.9 65.9999 183.8 65.9999H181.5C181.354 65.9999 181.314 65.9463 181.265 65.8783C181.246 65.8535 181.227 65.8267 181.2 65.7999L180.4 63.6999C180.3 63.4999 180.5 63.2999 180.7 63.2999H182.7C183 63.2999 183.1 63.0999 183.1 62.8999V57.2999L180.1 58.4999C179.9 58.5999 179.7 58.3999 179.7 58.1999V55.8999C179.7 55.7535 179.754 55.7142 179.822 55.6645C179.846 55.6463 179.873 55.6266 179.9 55.5999L183.1 54.2999V46.7999H180C179.8 46.7999 179.7 46.5999 179.7 46.4999V44.4999C179.7 44.2999 179.9 44.1999 180 44.1999H183.1V40.1999C183.1 39.9999 183.3 39.8999 183.4 39.8999H185.5C185.7 39.8999 185.8 40.0999 185.8 40.1999V44.2999H188.8C189 44.2999 189.1 44.4999 189.1 44.5999V46.5999C189.1 46.7999 188.9 46.8999 188.8 46.8999H185.8V53.3999L188.5 52.2999C188.7 52.1999 188.9 52.3999 188.9 52.5999ZM95.1 75.7C95.1 73.4 93.3 72 91.4 72C89.4 72 87.7 73.5 87.8 75.8C87.8 78.1 89.6 79.5 91.5 79.5C92.2 79.5 92.8 79.4 93.4 79L94.2 79.9H94.3L95 79.3V79.2L94.2 78.3C94.7 77.7 95.1 76.8 95.1 75.7ZM92.5 78.2C92.2 78.3 91.8 78.4 91.4 78.4C90.2 78.4 89 77.5 89 75.8C89 74 90.2 73.2 91.4 73.2C92.6 73.2 93.8 74 93.8 75.8C93.8 76.5 93.6 77.1 93.3 77.5L92.2 76.2H92.1L91.4 76.8V76.9L92.5 78.2ZM97.6 72.2001V79.3001L98.8 79.4001C98.8 79.4001 98.9 79.4001 98.9 79.3001V72.2001C98.9 72.2001 98.9 72.1001 98.8 72.1001H97.7C97.7 72.1001 97.6 72.1001 97.6 72.2001ZM101.3 79.3001V78.2001L105.3 73.3001H101.5C101.4 73.3001 101.4 73.2001 101.4 73.2001V72.2001C101.4 72.1001 101.5 72.1001 101.5 72.1001H106.8C106.9 72.1001 106.9 72.2001 106.9 72.2001V73.3001L102.9 78.2001H106.9C107 78.2001 107 78.3001 107 78.3001V79.3001C107 79.4001 106.9 79.4001 106.9 79.4001H101.5C101.4 79.4001 101.3 79.4001 101.3 79.3001ZM114.1 76.3001V79.3001L115.3 79.4001C115.3 79.4001 115.4 79.4001 115.4 79.3001V72.2001C115.4 72.2001 115.4 72.1001 115.3 72.1001H114.2C114.2 72.1001 114.1 72.1001 114.1 72.2001V75.1001H110.7V72.2001C110.7 72.2001 110.7 72.1001 110.6 72.1001H109.5C109.5 72.1001 109.4 72.1001 109.4 72.2001V79.3001C109.4 79.3001 109.4 79.4001 109.5 79.4001H110.6C110.6 79.4001 110.7 79.4001 110.7 79.3001V76.3001H114.1ZM118.3 79.3001V72.2001C118.3 72.1001 118.4 72.1001 118.4 72.1001H119.5C119.6 72.1001 119.6 72.2001 119.6 72.2001V79.3001C119.6 79.4001 119.5 79.4001 119.5 79.4001L118.3 79.3001ZM128.3 79.4001C128.3 79.4001 128.4 79.4001 128.4 79.3001V73.3001H130.5C130.5 73.3001 130.6 73.3001 130.6 73.2001V72.2001C130.6 72.2001 130.6 72.1001 130.5 72.1001H124.8C124.8 72.1001 124.7 72.1001 124.7 72.2001V73.2001C124.7 73.2001 124.7 73.3001 124.8 73.3001H127.1V79.3001C127.1 79.3001 127.1 79.4001 127.2 79.4001H128.3ZM132.9 79.3001V72.2001C132.9 72.1001 133 72.1001 133 72.1001H137.2C137.3 72.1001 137.3 72.2001 137.3 72.2001V73.1001C137.3 73.2001 137.2 73.2001 137.2 73.2001H134V75.1001H136.8C136.9 75.1001 136.9 75.2001 136.9 75.2001V76.1001C136.9 76.2001 136.8 76.2001 136.8 76.2001H134V78.1001H137.2C137.3 78.1001 137.3 78.2001 137.3 78.2001V79.1001C137.3 79.2001 137.2 79.2001 137.2 79.2001H133C133 79.4001 132.9 79.4001 132.9 79.3001ZM143.3 72.1001C141.4 72.1001 139.6 73.5001 139.6 75.8001C139.6 78.2001 141.3 79.6001 143.3 79.6001C145 79.6001 146.1 78.5001 146.5 77.3001C146.5 77.3001 146.5 77.2001 146.4 77.2001L145.5 76.9001C145.5 76.9001 145.4 76.9001 145.4 77.0001C145.1 77.8001 144.5 78.5001 143.3 78.5001C142 78.5001 140.9 77.6001 140.9 75.9001C140.9 74.1001 142.1 73.3001 143.3 73.3001C144.4 73.3001 145.1 74.0001 145.3 74.8001C145.3 74.9001 145.3 74.9001 145.4 74.9001L146.4 74.5001H146.4C146.45 74.5001 146.475 74.5001 146.488 74.4876C146.5 74.4751 146.5 74.4502 146.5 74.4002V74.4001C146.2 73.2001 145.1 72.1001 143.3 72.1001ZM153.6 79.3001V76.3001H150.2V79.3001C150.2 79.4001 150.1 79.4001 150.1 79.4001H149C148.9 79.4001 148.9 79.3001 148.9 79.3001V72.2001C148.9 72.1001 149 72.1001 149 72.1001H150.1C150.2 72.1001 150.2 72.2001 150.2 72.2001V75.1001H153.6V72.2001C153.6 72.1001 153.7 72.1001 153.7 72.1001H154.8C154.9 72.1001 154.9 72.2001 154.9 72.2001V79.3001C154.9 79.4001 154.8 79.4001 154.8 79.4001L153.6 79.3001ZM159.1 74.0002L162.6 79.4002V79.5002H163.8C163.8 79.5002 163.9 79.5002 163.9 79.4002V72.3002C163.9 72.3002 163.9 72.2002 163.8 72.2002H162.7C162.7 72.2002 162.6 72.2002 162.6 72.3002V77.3002L159.4 72.2002H157.9C157.9 72.2002 157.8 72.2002 157.8 72.3002V79.4002C157.8 79.4002 157.8 79.5002 157.9 79.5002H159C159 79.5002 159.1 79.5002 159.1 79.4002V74.0002ZM170 72C171.9 72 173.7 73.4 173.7 75.7C173.7 78.1 171.9 79.4 170 79.4C168.1 79.4 166.3 78 166.3 75.7C166.4 73.5 168.1 72 170 72ZM170 78.4C171.2 78.4 172.4 77.6 172.4 75.8C172.4 74 171.2 73.2 170 73.2C168.8 73.2 167.6 74 167.6 75.8C167.6 77.5 168.8 78.4 170 78.4ZM176.2 72.2001V79.3001L180.7 79.4001C180.7 79.4001 180.8 79.4001 180.8 79.3001V78.3001C180.8 78.3001 180.8 78.2001 180.7 78.2001H177.5V72.2001C177.5 72.2001 177.5 72.1001 177.4 72.1001H176.3C176.3 72.1001 176.2 72.1001 176.2 72.2001ZM186 72C187.9 72 189.7 73.4 189.7 75.7C189.7 78.1 187.9 79.4 186 79.4C184.1 79.4 182.3 78 182.3 75.7C182.4 73.5 184.1 72 186 72ZM186 78.4C187.2 78.4 188.4 77.6 188.4 75.8C188.4 74 187.2 73.2 186 73.2C184.8 73.2 183.6 74 183.6 75.8C183.6 77.5 184.8 78.4 186 78.4ZM197.6 78.5002L197.7 79.4002L198.6 79.6002C198.6 79.6002 198.7 79.6002 198.7 79.5002V76.0002C198.7 76.0002 198.7 75.9002 198.6 75.9002H195.3C195.3 75.9002 195.2 75.9002 195.2 76.0002V76.9002C195.2 76.9002 195.2 77.0002 195.3 77.0002H197.6C197.6 77.6002 197.1 78.6002 195.6 78.6002C194.3 78.6002 193.2 77.7002 193.2 75.9002C193.2 74.1002 194.4 73.3002 195.6 73.3002C196.6 73.3002 197.3 73.9002 197.6 74.7002C197.6 74.8002 197.6 74.8002 197.7 74.8002L198.7 74.4002C198.8 74.4002 198.8 74.4002 198.8 74.3002C198.4 73.2002 197.3 72.2002 195.6 72.2002C193.7 72.2002 191.9 73.5002 191.9 75.9002C191.9 78.2002 193.5 79.6002 195.4 79.6002C196.5 79.6002 197.3 79.1002 197.6 78.5002ZM206.5 72.2002L206.44 72.3002H205.1L205 72.4002L203.3 75.4002L201.6 72.4002C201.6 72.3002 201.6 72.3002 201.5 72.3002H200.3C200.2 72.3002 200.1 72.3002 200.2 72.4002L202.7 76.4002V79.4002C202.7 79.4002 202.7 79.5002 202.8 79.5002H203.9C203.9 79.5002 204 79.5002 204 79.4002V76.4002L206.44 72.3002H206.5V72.2002ZM105 55.5H107.1C107.3 55.5 107.4 55.7 107.4 55.8V65.7C107.4 65.9 107.2 66 107.1 66H105C104.8 66 104.7 65.8 104.7 65.7V55.8C104.7 55.6 104.9 55.5 105 55.5ZM94.3 55.5H96.4C96.6 55.5 96.7 55.7 96.7 55.8V57.2C96.7 57.4 96.6 62.5 90.8 65.7C90.7 65.7 90.5 65.7 90.4 65.6L89.2 63.9C89.1 63.8 89.2 63.6 89.3 63.5C93.9 61.1 94 57.3 94 57.2V55.8C94 55.6 94.2 55.5 94.3 55.5ZM157.6 51.6999C157.5 51.5999 157.3 51.4998 157.2 51.5998L156 52.1999V49.7998H159.5C159.6 49.7998 159.8 49.6999 159.8 49.4999V47.4999C159.8 47.3999 159.7 47.1999 159.5 47.1999H156V42.5998C157.3 42.4998 158.5 42.2999 159 42.1999C159.1 42.1999 159.3 42.0999 159.3 41.8999V39.8999C159.3 39.6999 159.2 39.4998 158.9 39.5998C157.6 39.6998 152.9 40.1999 150.3 40.4999C150.2 40.4999 150 40.5998 150 40.7998V42.7998C150 42.9998 150.1 43.1998 150.4 43.0998C151.2 42.9999 152.299 42.8999 153.398 42.8L153.399 42.8L153.4 42.7998V47.0998H149.5C149.4 47.0998 149.2 47.1999 149.2 47.3999V49.3999C149.2 49.4999 149.3 49.6999 149.5 49.6999H152.7C152.4 51.1999 151.3 56.5998 148.8 62.2998C148.7 62.3998 148.8 62.5999 148.9 62.6999L150.7 64.2998C150.8 64.3998 151 64.3999 151 64.1999C152 61.8999 152.8 59.6999 153.5 57.6999V65.8999H156.2V54.4999L158 58.0998C158.1 58.1998 158.3 58.2999 158.4 58.1999L160.3 57.1999C160.4 57.0999 160.5 56.8998 160.4 56.7998L157.6 51.6999ZM166.2 47.8998C166.1 47.8998 165.9 47.8998 165.8 47.7998L161.9 42.9998V42.9997C161.9 42.8997 161.9 42.6998 162 42.5998L163.6 41.2998C163.7 41.2998 163.9 41.2998 164 41.3998L167.9 46.1998C167.9 46.2998 167.9 46.4998 167.8 46.5998L166.2 47.8998ZM165 55.2998C165.1 55.3998 165.3 55.3998 165.4 55.3998L167 54.0998C167.1 53.9998 167.1 53.7998 167.1 53.6998L163.2 48.8998C163.1 48.7998 162.9 48.7998 162.8 48.7998L161.2 50.0998C161.1 50.1998 161.1 50.3998 161.1 50.4998L165 55.2998ZM121 40.2C120.9 40.1 120.7 40.1 120.6 40.2L119 41.6C118.9 41.7 118.9 41.9 119 42L122.2 45.5C122.3 45.6 122.5 45.6 122.6 45.5L124.2 44.1C124.3 44 124.3 43.8 124.2 43.7L121 40.2ZM121.4 53.5C121.3 53.6 121.1 53.6 121 53.5L117.8 50C117.7 49.9 117.7 49.7 117.8 49.6L119.4 48.2C119.5 48.1 119.7 48.1 119.8 48.2L123 51.7C123.1 51.8 123.1 52 123 52.1L121.4 53.5ZM128.4 53.1001C127.6 53.1001 126.9 53.7001 126.9 54.6001V65.7001C126.9 65.8001 127 66.0001 127.2 66.0001H129.3C129.4 66.0001 129.6 65.9001 129.6 65.7001V64.6001H139.5V65.7001C139.5 65.8001 139.6 66.0001 139.8 66.0001H141.9C142 66.0001 142.2 65.9001 142.2 65.7001V54.6001C142.2 53.8001 141.6 53.1001 140.7 53.1001H128.4ZM129.6 62.1001V55.8001H139.5V62.1001H129.6ZM138.7 42.7003C138.8 42.7003 139 42.7003 139.1 42.8003L144 50.2003C144.1 50.3003 144 50.5002 143.9 50.6002L142.1 51.7003C142 51.7003 141.8 51.7002 141.7 51.6002L140.8 50.2003L127.4 51.5003C126.7 51.5003 126.1 51.3003 125.7 50.7003C125.3 50.1003 125.3 49.2002 125.7 48.6002L131.9 39.6002C132 39.4002 132.2 39.4003 132.3 39.5003L134.1 40.6002C134.3 40.6002 134.3 40.9003 134.2 41.0003L128.8 48.5003C128.8 48.5003 128.8 48.6002 128.9 48.6002L139.1 47.6002L136.8 44.2003C136.7 44.1003 136.8 43.9003 136.9 43.8003L138.7 42.7003H138.7ZM123.3 58.1002L121.4 57.3002C121.3 57.2002 121 57.3002 121 57.4002C120.4 59.0002 119.2 61.6002 117.8 64.2002C117.7 64.3002 117.8 64.6002 117.9 64.6002L119.7 65.7002C119.8 65.8002 120.1 65.7002 120.1 65.6002C121.7 62.7002 122.8 60.1002 123.4 58.5002C123.6 58.3002 123.4 58.1002 123.3 58.1002Z" fill="#333333"/>
</svg>
