<svg width="250" height="120" viewBox="0 0 250 120" fill="none" xmlns="http://www.w3.org/2000/svg">
<rect width="250" height="120" fill="white"/>
<g clip-path="url(#clip0)">
<path d="M104.516 60.5076L92.4178 53.5355C92.1502 53.3858 91.8232 53.5803 91.8232 53.8796V71.2201C91.8232 71.5343 91.9867 71.8185 92.2543 71.9681L104.353 78.9402C104.62 79.0899 104.947 78.8953 104.947 78.5961V61.2556C104.947 60.9414 104.784 60.6572 104.516 60.5076Z" fill="#333333"/>
<path d="M88.0032 50.9768L75.9046 44.0047C75.637 43.8551 75.3101 44.0496 75.3101 44.3488V71.3096C75.3101 71.534 75.4884 71.7136 75.7114 71.7136H88.033C88.2559 71.7136 88.4343 71.534 88.4343 71.3096V51.7398C88.4343 51.4256 88.2708 51.1414 88.0032 50.9768Z" fill="#333333"/>
<path d="M59.3916 78.9402L71.4903 71.9681C71.7578 71.8185 71.9213 71.5342 71.9213 71.22V42.404C71.9213 42.0898 71.5943 41.9103 71.3268 42.0599L59.2282 49.032C58.9606 49.1816 58.7971 49.4659 58.7971 49.7801V78.5961C58.7971 78.8953 59.139 79.0898 59.3916 78.9402Z" fill="#333333"/>
<path d="M108.336 63.3952V71.3099C108.336 71.5343 108.515 71.7139 108.737 71.7139H122.456C122.858 71.7139 123.006 71.1752 122.649 70.9658L108.931 63.0511C108.663 62.9015 108.336 63.096 108.336 63.3952Z" fill="#333333"/>
<path d="M54.8138 51.5755L21.1932 70.9657C20.8365 71.1752 20.9851 71.7138 21.3864 71.7138H55.007C55.23 71.7138 55.4083 71.5343 55.4083 71.3098V51.9196C55.4083 51.6204 55.0813 51.4259 54.8138 51.5755Z" fill="#333333"/>
<path d="M142.106 48.0596H131.33C131.226 48.0596 131.122 48.1493 131.122 48.269V73.3746C131.122 73.5242 131.285 73.6289 131.419 73.5541L135.298 71.2949C135.372 71.25 135.417 71.1752 135.417 71.0854V65.011L142.106 65.026C143.547 65.026 148.095 64.4275 148.095 56.5877C148.11 49.2565 144.528 48.0745 142.106 48.0596ZM141.437 61.1958C141.422 61.1958 135.432 61.1958 135.432 61.1958V52.3535H141.437C142.67 52.3535 143.963 53.4757 143.963 56.7373C143.963 59.9391 142.759 61.1958 141.437 61.1958Z" fill="#333333"/>
<path d="M205.408 69.2752C205.408 69.3799 205.497 69.4846 205.616 69.4846H209.51C209.614 69.4846 209.718 69.3949 209.718 69.2752V50.633C209.718 50.5433 209.674 50.4684 209.599 50.4236L205.72 48.1644C205.586 48.0896 205.423 48.1793 205.423 48.3439V69.2752H205.408Z" fill="#333333"/>
<path d="M160.179 52.4282H151.336C151.232 52.4282 151.128 52.518 151.128 52.6377V55.9592C151.128 56.0639 151.217 56.1686 151.336 56.1686H160.164C160.699 56.1836 161.19 56.3182 161.19 57.0364V59.0712H155.2C151.677 59.0712 150.414 60.2382 150.414 63.3801V64.4573C150.414 68.3773 151.93 69.4096 155.72 69.4096H165.277C165.381 69.4096 165.485 69.3199 165.485 69.2002V57.3955C165.485 53.4606 163.969 52.4282 160.179 52.4282ZM155.453 65.6543C154.918 65.6393 154.427 65.5046 154.427 64.7865V62.9911C154.427 62.2729 154.932 62.1533 155.453 62.1533H161.175V65.6543H155.453Z" fill="#333333"/>
<path d="M227.078 65.6844H218.25C217.715 65.6694 217.224 65.5347 217.224 64.8166V62.7818H223.214C226.737 62.7818 228 61.6148 228 58.4729V57.3956C228 53.4757 226.484 52.4434 222.694 52.4434H218.146C214.415 52.4583 212.914 53.4907 212.914 57.3657V64.4426C212.914 68.3625 214.43 69.3948 218.22 69.3948H227.064C227.168 69.3948 227.272 69.3051 227.272 69.1854V65.8639C227.272 65.7741 227.183 65.6844 227.078 65.6844ZM218.22 56.1688H222.946C223.482 56.1838 223.972 56.3184 223.972 57.0366V58.832C223.972 59.5501 223.467 59.6698 222.946 59.6698H217.224V57.0366C217.224 56.3184 217.7 56.1838 218.22 56.1688Z" fill="#333333"/>
<path d="M184.064 57.3956C184.064 53.4757 182.548 52.4434 178.758 52.4434H169.186C169.082 52.4434 168.978 52.5331 168.978 52.6528V69.2153C168.978 69.32 169.067 69.4248 169.186 69.4248H173.081C173.185 69.4248 173.289 69.335 173.289 69.2153V56.1538H178.743C179.278 56.1688 179.769 56.3034 179.769 57.0216V69.2003C179.769 69.3051 179.858 69.4098 179.977 69.4098H183.871C183.975 69.4098 184.079 69.32 184.079 69.2003V57.3956H184.064Z" fill="#333333"/>
<path d="M186.963 63.0811V69.2303L202.866 65.8938C202.896 65.8938 202.896 65.834 202.866 65.834L186.963 63.0811Z" fill="#333333"/>
<path d="M197.56 67.6889V69.3795V71.13C197.56 71.9081 196.936 72.5364 196.163 72.5364H189.356C189.252 72.5364 189.148 72.6262 189.148 72.7459V75.4539C189.148 75.5587 189.237 75.6634 189.356 75.6634H197.204C199.775 75.6634 201.871 73.5538 201.871 70.9655V66.8062L197.56 67.6889Z" fill="#333333"/>
<path d="M187.082 62.4226L191.303 63.1557C191.184 62.5423 191.124 61.8091 191.124 60.9414C191.124 57.0962 192.076 56.1537 193.413 56.1537H197.56V64.2479L201.856 64.996V52.6377C201.856 52.518 201.767 52.4282 201.648 52.4282H192.834C190.411 52.4432 186.888 53.6401 186.888 60.9414C186.888 61.465 186.903 61.9438 186.948 62.4076L187.082 62.4226Z" fill="#333333"/>
</g>
<defs>
<clipPath id="clip0">
<rect width="207" height="37" fill="white" transform="translate(21 42)"/>
</clipPath>
</defs>
</svg>
