<svg width="92" height="102" viewBox="0 0 92 102" fill="none" xmlns="http://www.w3.org/2000/svg">
<path d="M91.24 31.7C89.14 36.86 86.38 41.68 83.05 46.06V69.19C83.05 71.43 81.84 73.52 79.9 74.64L48.82 92.59C46.88 93.71 44.47 93.71 42.53 92.59L27.3 83.8C25.87 82.55 24.41 80.69 23.94 78.15C24.12 68.74 33.42 61.53 33.42 61.53L30.58 56.42C30.58 56.42 19.7 61.36 11.5 56.83C9.25 54.8 8.51 52.1 8.29 50.1V33.3C8.29 31.06 9.5 28.97 11.44 27.85L42.52 9.9C43.49 9.34 44.58 9.06 45.67 9.06C46.76 9.06 47.85 9.34 48.82 9.9L69.96 22.11C75.48 21.53 81.08 21.69 86.62 22.59C85.84 21.87 84.99 21.21 84.05 20.66L52.97 2.71001C48.47 0.11001 42.88 0.11001 38.38 2.71001L7.29 20.65C2.8 23.25 0 28.09 0 33.29V69.18C0 74.38 2.8 79.22 7.29 81.82L38.37 99.77C40.62 101.07 43.14 101.72 45.66 101.72C48.18 101.72 50.7 101.07 52.95 99.77L84.03 81.82C88.53 79.22 91.32 74.38 91.32 69.18V33.29C91.35 32.75 91.3 32.22 91.24 31.7Z" fill="white"/>
<path d="M59.03 69.66L62.4 57.8299L66.4 55.6C77.47 49.44 85.64 39.1299 89.1 26.9399C76.91 23.4699 63.85 24.9799 52.78 31.1499L48.78 33.38L36.95 30.0099L25 36.6599L36.39 43.2999L31.65 50.35L35.29 56.8899L38.93 63.4299L47.42 63.1199L47.07 76.2999L59.03 69.66ZM58.12 36.57C61.34 34.78 65.4 35.9299 67.19 39.1499C68.98 42.3699 67.83 46.4299 64.61 48.2199C61.39 50.0099 57.33 48.8599 55.54 45.6399C53.75 42.4199 54.9 38.36 58.12 36.57Z" fill="white"/>
</svg>
